<?xml version="1.0" standalone="no"?>
<!DOCTYPE svg PUBLIC "-//W3C//DTD SVG 20010904//EN"
 "http://www.w3.org/TR/2001/REC-SVG-20010904/DTD/svg10.dtd">
<svg version="1.0" xmlns="http://www.w3.org/2000/svg"
 width="612.000000pt" height="459.000000pt" viewBox="0 0 612.000000 459.000000"
 preserveAspectRatio="xMidYMid meet">

<g transform="translate(0.000000,459.000000) scale(0.100000,-0.100000)"
fill="#000000" stroke="none">
<path d="M0 4570 c0 -13 7 -20 18 -20 10 0 23 -5 30 -12 7 -7 12 -8 12 -2 0
11 -42 54 -53 54 -4 0 -7 -9 -7 -20z"/>
<path d="M175 4571 c30 -11 55 -27 65 -43 12 -21 19 -24 33 -17 9 6 17 19 17
29 0 10 5 22 10 25 28 17 2 25 -82 24 l-93 -1 50 -17z"/>
<path d="M400 4587 c0 -1 20 -20 45 -41 30 -25 58 -39 80 -40 19 -2 35 0 35 4
0 4 10 5 23 3 12 -3 47 5 77 16 30 12 63 21 73 21 9 0 16 3 15 8 -5 12 6 15
27 8 11 -3 35 -29 52 -56 18 -27 55 -67 82 -87 43 -32 50 -43 51 -73 0 -19 4
-40 8 -46 4 -6 37 -14 74 -17 38 -3 77 -11 87 -17 22 -12 74 -80 96 -127 8
-18 24 -37 36 -43 32 -17 77 -3 94 31 14 27 39 41 137 82 20 8 41 25 47 36 7
11 24 27 39 35 23 12 33 12 67 0 40 -13 75 -45 75 -69 0 -27 27 -37 57 -22 38
19 146 29 180 17 28 -10 28 -10 -5 17 -26 23 -32 35 -32 68 0 36 4 43 34 59
18 9 42 16 52 14 26 -4 30 33 8 75 -9 17 -24 57 -34 87 l-18 55 -263 3 c-207
2 -261 0 -251 -10 17 -17 15 -64 -4 -82 -34 -34 -53 -38 -92 -19 -39 19 -57
61 -40 96 8 16 -17 17 -452 17 -253 0 -460 -1 -460 -3z m1440 -159 c54 -57 56
-109 3 -137 -39 -20 -65 -13 -105 31 -49 53 -53 104 -10 130 43 27 67 22 112
-24z"/>
<path d="M2116 4551 c21 -21 40 -37 42 -36 2 1 -7 19 -19 39 -13 23 -28 36
-42 36 -18 0 -16 -5 19 -39z"/>
<path d="M2760 4585 c0 -3 21 -33 47 -67 26 -35 48 -65 49 -67 2 -2 23 7 48
19 35 17 46 27 46 45 0 29 24 55 51 55 24 0 25 -17 2 -24 -10 -3 -6 -4 8 -2
18 2 31 -4 40 -17 33 -48 62 -77 76 -77 9 0 31 -10 50 -21 19 -12 35 -20 36
-18 1 2 12 16 25 30 l23 26 -24 -4 c-21 -4 -25 0 -29 24 -4 26 -1 29 19 25 14
-3 25 1 29 11 3 8 31 20 65 28 117 26 62 34 -254 37 -169 1 -307 0 -307 -3z"/>
<path d="M3478 4560 c-22 -22 -25 -34 -22 -75 1 -27 -2 -57 -7 -68 -14 -25 -5
-59 20 -74 18 -11 19 -9 14 46 -4 38 -2 61 6 65 6 4 11 17 11 28 0 12 3 19 6
15 8 -8 34 18 34 33 0 7 -8 22 -18 34 l-17 23 -27 -27z"/>
<path d="M4004 4529 c32 -34 64 -71 72 -84 9 -14 30 -26 52 -30 20 -4 49 -14
65 -23 23 -14 27 -23 27 -63 0 -66 5 -75 71 -119 32 -22 77 -63 100 -90 23
-28 54 -53 68 -57 14 -3 41 -14 59 -25 26 -16 32 -26 32 -54 0 -25 9 -44 35
-73 19 -21 35 -44 35 -50 0 -6 6 -11 13 -11 22 0 75 -53 82 -83 5 -17 2 -33
-6 -43 -10 -13 -10 -17 0 -24 8 -4 10 -13 6 -20 -5 -7 -9 -25 -11 -39 l-2 -26
15 23 c9 12 24 22 34 22 10 0 21 5 25 11 6 11 38 6 85 -12 29 -11 43 -53 33
-94 -7 -30 -51 -59 -84 -57 -29 2 -90 29 -90 40 0 4 -4 13 -9 21 -7 11 -12 11
-32 -2 -21 -14 -28 -14 -56 -2 -18 8 -33 19 -33 25 0 7 -6 10 -12 8 -7 -3 -18
-33 -24 -69 -27 -153 -56 -242 -94 -289 -15 -19 -22 -45 -25 -95 -4 -61 -8
-73 -31 -92 -15 -12 -43 -24 -63 -28 -20 -4 -44 -14 -54 -22 -15 -14 -21 -14
-45 -2 -15 7 -30 15 -34 17 -5 2 -8 -5 -8 -16 0 -12 -9 -23 -20 -27 -29 -9
-24 -27 13 -50 21 -14 33 -30 35 -48 2 -16 11 -31 20 -34 31 -11 62 -46 62
-70 0 -13 6 -23 13 -23 23 0 59 -46 55 -71 -4 -32 -55 -51 -69 -27 -7 13 -19
16 -47 13 -20 -2 -31 -1 -25 1 8 4 -9 33 -47 83 -33 42 -60 82 -60 89 0 7 -7
12 -15 12 -8 0 -15 7 -15 15 0 8 -9 20 -20 27 -11 7 -20 17 -20 23 0 5 -17 33
-38 60 -20 28 -46 64 -56 80 -11 17 -41 56 -68 87 -47 55 -52 57 -109 64 -32
4 -59 11 -59 16 0 4 -11 14 -25 20 -19 8 -25 19 -25 42 0 23 -13 45 -50 86
-28 30 -50 60 -50 67 0 23 -20 14 -21 -9 -1 -17 -3 -18 -6 -6 -3 11 -19 20
-41 24 -47 8 -92 31 -93 47 -1 6 -2 19 -3 27 0 8 -7 14 -14 12 -7 -1 -21 -3
-30 -5 -10 -1 -34 -13 -53 -25 -20 -12 -42 -22 -49 -22 -15 0 -78 46 -97 70
-11 13 -12 12 -13 -5 0 -19 -36 -52 -52 -47 -5 1 -8 -18 -8 -42 0 -37 -4 -47
-27 -62 -16 -10 -42 -17 -60 -16 -17 2 -34 -2 -38 -8 -10 -17 -82 -50 -108
-50 -12 0 -28 -5 -34 -11 -8 -8 -33 -14 -75 -18 -5 -1 -8 -7 -8 -14 0 -22
-159 -117 -196 -117 -33 0 -73 35 -118 104 -44 68 -100 136 -111 136 -16 0 -1
-29 24 -48 24 -18 30 -31 36 -81 4 -33 13 -65 21 -72 31 -25 14 -73 -33 -95
-29 -15 -38 -15 -60 -3 -14 7 -28 20 -31 29 -3 8 -14 24 -24 34 -17 18 -18 18
-18 2 0 -20 -37 -55 -59 -56 -8 0 -29 12 -48 26 -19 14 -36 24 -38 22 -2 -2
11 -27 29 -56 40 -65 38 -105 -6 -132 -26 -16 -34 -16 -74 -4 -41 12 -46 12
-67 -7 -27 -25 -189 -129 -200 -129 -5 0 -15 -7 -23 -15 -9 -8 -27 -18 -42
-21 -44 -9 -73 -27 -86 -52 -16 -30 3 -95 44 -157 15 -22 51 -86 80 -141 57
-108 60 -140 16 -132 -23 5 -25 2 -28 -46 -4 -59 8 -100 40 -132 28 -29 28
-40 -3 -60 -25 -16 -25 -17 -8 -34 12 -12 23 -15 35 -9 26 14 34 11 48 -17 13
-24 12 -27 -9 -43 -20 -15 -22 -21 -12 -40 10 -17 16 -19 31 -11 30 16 46 12
59 -17 11 -25 10 -29 -13 -46 -14 -10 -24 -23 -20 -28 3 -5 -1 -9 -8 -9 -8 0
-20 16 -27 36 -10 29 -15 33 -27 23 -17 -14 -17 -43 1 -89 12 -30 14 -32 14
-11 1 13 4 21 8 18 3 -4 12 -2 20 5 20 16 25 5 13 -27 -6 -16 -7 -32 -2 -39 5
-6 12 -38 15 -70 6 -61 26 -102 28 -55 l0 24 11 -22 c6 -13 14 -23 18 -23 4 0
8 -18 8 -40 1 -23 -3 -38 -9 -35 -5 4 -9 0 -9 -7 0 -8 10 -14 21 -15 31 -3 34
-10 16 -31 -28 -30 -22 -42 16 -30 17 5 40 12 50 15 10 3 17 0 17 -9 0 -8 6
-23 14 -33 12 -17 16 -17 30 -5 15 11 20 11 37 -7 17 -17 19 -25 10 -61 -11
-51 -1 -60 38 -33 32 23 72 27 117 11 23 -8 45 -36 97 -122 37 -62 67 -120 67
-129 0 -10 -9 -21 -20 -24 -20 -6 -28 -25 -11 -25 5 0 11 -14 15 -31 7 -39 31
-33 31 7 0 42 16 44 42 5 29 -44 29 -67 -1 -87 -34 -22 -70 -15 -74 14 -5 31
-28 38 -53 16 -14 -12 -18 -26 -14 -43 7 -36 -3 -47 -84 -96 -64 -38 -75 -48
-100 -101 -15 -32 -31 -74 -34 -93 -4 -19 -14 -42 -21 -50 -8 -9 -16 -27 -18
-41 -2 -18 -10 -26 -28 -28 -13 -2 -39 -17 -58 -33 -18 -16 -45 -31 -60 -34
-15 -3 -76 -30 -135 -61 -60 -31 -111 -53 -114 -51 -3 3 9 13 26 22 17 8 31
20 31 25 0 6 8 10 19 10 24 0 130 62 131 76 0 6 7 17 14 24 11 9 13 18 5 38
-17 47 -33 76 -52 95 -24 25 -19 61 10 65 17 3 24 -3 29 -22 7 -29 20 -32 49
-10 20 15 20 15 -3 57 -12 23 -22 52 -22 64 0 12 -9 27 -20 33 -29 15 -26 58
4 72 30 13 54 5 64 -21 6 -17 9 -18 26 -5 11 7 18 15 15 17 -2 1 -23 15 -47
30 l-43 28 24 20 c14 10 36 23 49 28 l23 9 -30 12 c-22 9 -38 9 -60 1 -46 -16
-75 -4 -75 30 0 37 -15 37 -66 1 -21 -16 -59 -34 -84 -42 -25 -7 -66 -26 -91
-42 -25 -15 -53 -28 -62 -28 -9 0 -27 -11 -41 -25 -27 -27 -52 -25 -61 5 -8
25 4 48 28 56 12 4 33 17 45 30 13 13 40 28 60 35 20 7 48 24 63 38 14 15 46
35 70 45 100 41 139 60 139 65 0 3 -13 12 -30 19 -23 11 -30 20 -30 42 0 32
14 40 75 40 42 0 43 0 32 25 -12 25 -41 33 -52 15 -3 -5 -14 -10 -23 -10 -9 0
-30 -7 -46 -15 -15 -8 -33 -15 -40 -15 -6 0 -49 -23 -96 -50 -82 -47 -84 -49
-58 -59 53 -20 49 -64 -9 -98 -119 -68 -138 -76 -189 -74 -29 1 -64 -5 -82
-14 -36 -19 -66 -8 -77 26 -7 20 18 59 37 59 6 0 22 9 36 21 23 18 35 20 85
14 31 -3 57 -4 57 -1 0 13 -24 56 -32 56 -4 0 -8 7 -8 15 0 13 -7 14 -37 8
-45 -9 -80 -8 -111 2 -18 6 -22 4 -22 -13 0 -12 -9 -24 -22 -28 -26 -9 -25 -9
-54 0 -18 5 -22 1 -27 -23 -4 -19 -16 -33 -36 -42 -26 -12 -28 -15 -13 -25 9
-6 34 -14 55 -18 47 -9 54 -24 31 -73 -33 -70 -57 -77 -107 -33 -19 17 -39 30
-44 30 -17 0 -43 36 -43 59 0 20 12 29 64 46 19 5 19 6 -2 21 -12 8 -22 26
-22 39 0 26 35 65 57 65 7 0 13 11 13 24 0 14 5 28 10 31 6 3 10 15 10 25 0
25 35 43 66 36 14 -4 57 -11 97 -16 40 -5 82 -13 95 -16 19 -5 22 -2 22 19 0
31 35 57 108 81 50 16 56 16 78 1 14 -9 22 -20 19 -25 -4 -6 -2 -10 4 -10 14
0 25 21 27 52 1 24 -1 27 -21 22 -14 -3 -34 1 -50 12 -37 24 -33 81 8 104 24
13 30 13 55 0 20 -12 28 -26 32 -53 l5 -37 32 22 c27 19 33 30 33 61 0 43 -12
51 -103 62 -53 7 -59 5 -119 -30 -35 -21 -69 -45 -76 -53 -6 -9 -19 -17 -28
-18 -33 -5 -44 -14 -44 -39 0 -17 -8 -29 -24 -36 -34 -16 -60 2 -75 53 -7 24
-25 59 -39 78 -15 19 -29 44 -32 55 -5 16 -16 21 -65 25 -59 5 -94 18 -128 48
-14 13 -21 13 -41 2 -20 -10 -33 -10 -82 6 -41 13 -59 15 -62 6 -2 -6 -19 -21
-38 -33 -26 -16 -38 -19 -47 -10 -6 6 -22 11 -34 11 -28 0 -83 26 -83 40 0 5
-19 -2 -42 -15 -24 -14 -64 -32 -90 -40 -43 -15 -49 -15 -77 0 -26 13 -31 22
-31 50 0 30 6 39 41 63 22 15 57 42 77 60 40 36 70 40 129 18 21 -7 58 -19 83
-26 25 -7 56 -20 68 -27 13 -8 26 -13 28 -10 2 2 8 24 13 50 6 36 5 49 -7 61
-14 14 -12 16 14 27 16 6 45 15 64 18 31 6 35 10 32 35 -2 16 -15 52 -29 80
-16 31 -27 70 -28 99 -2 49 -14 67 -46 67 -10 0 -21 -15 -29 -40 -7 -22 -17
-40 -22 -40 -4 0 -8 -6 -8 -14 0 -8 -7 -22 -16 -31 -16 -16 -38 -14 -80 7 -17
8 -29 5 -62 -17 -32 -21 -49 -26 -88 -23 -46 3 -49 1 -52 -22 -5 -39 -41 -110
-55 -110 -14 0 -146 -56 -182 -77 -16 -9 -18 -14 -7 -24 6 -7 12 -28 12 -45 0
-26 -8 -39 -35 -59 l-34 -27 -34 21 c-23 14 -37 31 -40 51 -5 22 -14 31 -34
36 -15 3 -38 13 -51 20 l-22 14 0 -152 c0 -84 4 -169 10 -187 6 -23 6 -39 0
-46 -7 -8 -9 -201 -8 -534 l3 -521 63 30 c82 38 92 38 24 -1 -35 -20 -52 -35
-48 -44 3 -8 1 -17 -4 -20 -4 -3 -10 1 -13 7 -3 10 -8 10 -16 2 -8 -7 -11 -43
-9 -106 l3 -96 70 44 c39 24 89 53 113 65 23 12 42 26 42 32 0 6 3 8 6 4 7 -7
92 34 135 64 14 10 29 16 33 12 3 -3 6 -2 6 4 0 5 19 18 43 29 23 10 44 21 47
25 3 3 23 12 45 19 22 7 95 40 163 73 118 57 123 59 142 42 10 -9 24 -41 30
-70 6 -30 25 -72 41 -95 17 -23 33 -58 36 -79 7 -42 45 -122 67 -140 9 -8 16
-22 16 -32 0 -10 10 -39 22 -64 l22 -45 94 0 c66 0 97 4 107 14 8 7 11 16 8
19 -3 4 2 18 11 32 10 15 15 32 12 38 -3 8 -5 6 -6 -3 -1 -21 -79 137 -82 168
-3 23 8 32 103 86 58 34 124 80 148 103 24 24 47 41 51 38 4 -2 17 4 28 14 21
18 21 18 -23 16 -25 0 -45 2 -45 5 0 3 -14 11 -32 18 -29 11 -38 9 -100 -23
-72 -38 -121 -44 -148 -20 -9 9 -44 20 -76 27 -32 6 -81 18 -109 28 -81 28
-132 38 -149 28 -9 -5 -25 -7 -35 -3 -23 7 -46 49 -38 69 8 20 46 21 72 2 20
-14 67 -24 140 -30 22 -1 60 -12 85 -23 71 -33 140 -38 189 -16 46 22 44 33
-6 33 -23 0 -42 9 -64 29 l-30 29 31 7 c17 4 29 10 25 13 -11 12 -100 42 -122
42 -45 0 -133 56 -133 86 0 6 -9 23 -20 37 -23 29 -25 55 -6 80 24 31 66 -2
66 -52 0 -23 41 -61 66 -61 11 0 29 -7 41 -15 12 -8 48 -18 80 -21 32 -4 66
-10 75 -15 28 -15 71 -10 107 12 18 11 43 19 56 17 12 -1 30 3 39 11 14 12 16
12 10 -3 -3 -9 -10 -16 -15 -16 -5 0 -9 -11 -9 -25 0 -14 4 -25 8 -25 5 0 31
17 60 38 28 21 68 46 89 56 24 10 44 29 52 47 25 56 95 65 89 11 -3 -24 0 -27
22 -23 14 1 32 7 40 11 19 10 66 2 80 -15 16 -19 -53 -86 -129 -124 -70 -35
-146 -84 -172 -111 -23 -23 -27 -41 -18 -72 9 -34 2 -37 -11 -5 l-9 22 0 -22
c-1 -27 9 -34 38 -26 17 4 19 8 9 14 -9 6 -3 9 18 9 37 0 61 24 75 74 11 41
46 67 60 45 12 -20 10 -36 -14 -109 l-22 -65 -78 -38 c-44 -21 -85 -44 -93
-51 -7 -8 -37 -22 -66 -32 -52 -16 -202 -87 -224 -105 -9 -7 -2 -31 22 -87 38
-86 40 -107 19 -158 l-14 -35 72 3 72 3 6 35 c3 19 11 45 17 57 7 12 12 35 12
51 0 35 25 59 104 101 33 17 64 35 70 40 17 13 46 21 46 13 0 -4 -30 -23 -67
-42 -86 -46 -113 -67 -113 -91 0 -11 -10 -33 -21 -48 -12 -16 -18 -34 -15 -40
4 -5 0 -26 -8 -46 l-15 -35 83 0 84 0 113 65 c62 36 121 65 131 65 20 0 103
50 106 65 1 6 10 10 20 10 9 1 44 16 77 35 33 19 68 38 77 42 10 4 18 14 18
21 0 14 33 30 115 59 34 12 42 20 57 63 10 28 18 59 18 70 0 11 7 34 16 50 9
17 24 70 35 119 20 100 27 109 111 154 l57 31 21 -26 c11 -14 20 -30 20 -34 0
-5 -22 -20 -50 -34 -27 -14 -56 -35 -64 -48 -19 -29 -66 -155 -66 -176 0 -9
-10 -34 -22 -56 -11 -22 -24 -53 -27 -70 -5 -24 -15 -33 -49 -45 -23 -9 -49
-25 -57 -37 -8 -12 -37 -29 -64 -38 -27 -9 -112 -49 -189 -90 -77 -41 -147
-75 -154 -75 -7 0 -24 -6 -38 -14 -14 -7 -56 -30 -95 -51 -38 -21 -74 -42 -79
-46 -6 -5 21 -9 61 -9 58 0 72 3 78 18 6 16 7 16 19 0 11 -15 29 -18 102 -18
l89 0 1 28 c1 25 -2 28 -22 24 -16 -3 -24 2 -29 17 -3 11 -3 25 0 31 10 16 43
12 54 -8 6 -9 11 -12 11 -5 0 7 12 18 28 25 18 9 28 22 30 41 4 37 49 60 63
34 13 -22 24 -21 62 6 18 12 39 27 48 32 53 33 96 65 112 83 11 12 25 18 35
15 12 -5 14 -2 8 12 -4 11 -4 16 0 12 9 -9 43 59 44 86 0 10 5 15 10 12 6 -3
10 -1 10 5 0 6 9 20 20 32 11 12 20 30 20 39 0 10 7 24 15 32 8 9 18 40 21 71
5 42 11 57 25 61 10 4 23 3 29 0 13 -8 13 -52 0 -60 -5 -3 -9 -16 -9 -28 1
-12 -6 -53 -14 -90 -15 -67 -14 -95 6 -108 6 -4 4 -32 -5 -72 -15 -66 -11 -87
18 -87 19 0 43 45 37 69 -3 13 0 23 10 27 9 3 13 13 10 24 -3 11 -2 28 3 37 4
10 9 25 10 33 4 33 13 66 23 93 8 19 7 34 -1 52 -8 19 -8 28 2 40 17 20 26 19
51 -6 17 -17 20 -29 15 -63 -6 -39 -43 -141 -71 -196 -7 -14 -18 -42 -25 -63
-15 -47 -94 -132 -140 -151 -19 -8 -45 -24 -58 -36 -20 -19 -72 -43 -144 -66
-9 -3 -19 -12 -22 -20 -4 -12 28 -14 198 -14 l204 0 10 42 c6 24 13 63 17 88
3 25 15 63 25 85 9 22 23 67 30 100 7 33 17 73 23 89 6 17 12 37 13 45 0 9 9
46 18 83 16 60 16 69 2 90 -8 13 -17 39 -18 58 -2 27 1 35 16 38 10 2 22 -2
27 -9 6 -10 12 -7 27 11 20 25 20 25 41 6 20 -19 22 -19 34 -1 19 24 53 12 78
-28 24 -40 24 -73 2 -86 -16 -9 -16 -12 -3 -20 45 -30 60 97 17 146 -25 29
-28 82 -4 97 15 9 22 7 38 -13 13 -16 19 -19 19 -8 0 8 7 17 15 21 8 3 15 15
15 26 0 11 7 20 15 20 12 0 11 9 -9 49 -14 27 -22 51 -19 55 3 3 1 12 -6 20
-9 11 -7 18 14 34 14 11 25 25 25 30 0 11 38 28 53 24 12 -3 97 48 97 59 0 7
55 41 62 38 11 -3 66 26 87 47 27 27 64 29 69 3 1 -8 -9 -21 -22 -29 -32 -17
-24 -33 9 -18 22 10 30 26 26 51 -2 13 36 7 49 -8 16 -19 30 -19 30 0 0 15 30
35 53 35 8 0 18 -12 22 -27 5 -21 2 -32 -14 -44 -12 -10 -21 -22 -21 -28 0
-14 6 -14 31 2 17 10 22 9 33 -5 7 -10 17 -18 21 -18 4 0 3 6 -3 12 -5 7 -18
39 -28 72 -10 32 -24 60 -30 63 -7 2 -25 -2 -42 -11 -22 -11 -32 -12 -41 -3
-18 18 -13 33 16 46 24 11 29 10 40 -6 10 -13 16 -14 21 -6 4 6 20 15 35 18
20 6 27 4 27 -8 0 -8 -7 -17 -15 -21 -23 -9 -18 -28 8 -24 16 2 22 -2 22 -17
0 -16 8 -20 47 -22 26 -2 50 1 53 7 13 21 44 9 77 -30 20 -22 38 -37 42 -33 9
9 7 25 -2 19 -11 -7 -46 99 -37 113 3 7 15 9 26 6 10 -4 19 -2 19 3 0 15 32
24 44 12 17 -17 23 -11 18 20 -3 24 -1 30 14 30 9 0 26 -8 37 -18 19 -16 19
-16 13 5 -7 21 11 40 39 42 6 0 11 9 13 20 4 21 25 33 46 25 7 -3 21 -23 31
-45 22 -48 40 -52 31 -6 -12 68 -12 70 16 77 16 5 36 3 51 -5 23 -12 24 -11
23 24 -1 30 3 37 22 39 16 3 25 12 29 33 6 29 34 54 47 42 4 -4 18 5 32 20 14
15 29 27 35 27 15 0 128 -121 148 -159 7 -12 16 -19 22 -16 5 4 9 3 8 -2 -4
-21 2 -33 15 -33 10 0 16 14 18 42 3 36 8 45 33 57 16 8 36 20 43 28 16 15 85
17 112 3 15 -8 17 -6 13 9 -3 10 -17 21 -31 24 -55 11 -65 27 -57 90 6 49 11
58 36 69 23 10 29 19 29 44 0 26 7 36 36 53 19 12 41 21 49 21 9 0 12 6 8 15
-3 9 2 24 12 35 22 24 13 39 -20 32 -50 -9 -71 35 -35 73 l19 21 -60 -1 c-51
0 -64 4 -79 22 -10 13 -16 32 -13 43 3 13 0 20 -8 20 -28 1 -59 38 -59 69 0
24 7 36 32 51 24 15 34 16 40 7 6 -9 14 -5 28 13 10 14 26 33 35 43 9 10 15
20 13 21 -1 1 -20 13 -40 25 -33 20 -42 21 -71 10 -21 -7 -41 -25 -52 -45 -10
-18 -21 -31 -26 -29 -4 3 -19 0 -32 -6 -20 -9 -36 -7 -83 9 -97 34 -124 32
-124 -5 0 -34 15 -60 24 -44 10 15 67 13 89 -3 14 -11 19 -30 20 -81 2 -55 6
-69 22 -78 27 -14 36 -29 30 -48 -4 -12 3 -18 25 -22 17 -4 29 -12 28 -19 -2
-6 6 -14 16 -16 11 -2 28 -14 37 -26 21 -24 25 -51 7 -39 -7 4 -5 -5 5 -20 23
-35 22 -62 -5 -87 -27 -25 -111 -27 -184 -5 -58 17 -111 19 -185 5 -59 -11
-124 -51 -132 -80 -3 -11 -18 -24 -34 -31 -15 -6 -45 -19 -65 -30 -20 -10 -46
-19 -56 -19 -12 0 -22 -9 -25 -21 -5 -17 -10 -20 -29 -14 -13 4 -36 8 -53 9
-20 1 -31 7 -33 19 -3 13 -10 17 -23 14 -38 -10 -18 14 48 55 142 91 129 83
368 207 66 35 129 73 140 86 14 17 33 25 63 27 48 3 50 16 4 38 -17 8 -32 22
-32 30 -1 10 -4 9 -10 -5 -8 -18 -9 -18 -9 5 -1 24 -20 65 -21 45 -1 -12 -30
25 -30 38 0 4 5 5 10 2 19 -12 10 5 -18 32 -16 16 -42 47 -59 70 -17 23 -34
39 -38 35 -5 -4 -5 -1 0 7 4 7 3 16 -2 20 -5 3 -29 33 -53 66 -24 33 -48 63
-54 67 -19 13 2 20 24 8 16 -9 25 -9 33 -1 6 6 19 11 28 11 10 0 23 15 33 40
12 31 27 45 65 65 58 29 63 35 72 95 13 86 22 125 29 130 15 10 17 130 3 142
-17 13 -17 29 0 27 27 -3 33 2 33 34 0 53 12 84 34 90 14 3 20 1 17 -6 -3 -7
-10 -11 -16 -10 -12 3 -14 -7 -5 -31 3 -9 12 -16 19 -16 7 0 16 -6 19 -12 3
-9 8 -8 16 5 15 23 40 22 40 -3 0 -13 -10 -25 -27 -32 l-28 -11 30 -8 c17 -4
39 -10 50 -14 17 -5 24 1 38 30 10 21 15 46 11 57 -7 22 14 108 26 108 11 0
20 39 13 56 -3 8 -14 14 -25 14 -11 0 -33 8 -49 17 -24 14 -29 24 -29 54 0 31
5 40 32 57 32 20 32 20 70 1 21 -11 38 -24 38 -29 0 -5 18 -15 40 -21 37 -11
40 -15 40 -47 0 -18 -9 -45 -20 -59 -18 -23 -18 -27 -3 -49 22 -34 41 -31 35
5 -4 27 -1 30 32 36 20 4 42 5 50 2 23 -9 73 21 104 60 57 75 85 103 100 103
22 0 94 36 120 61 27 24 22 51 -14 88 -13 13 -24 27 -24 31 0 5 -12 8 -27 7
-16 -1 -45 0 -65 1 l-37 2 15 28 c7 15 14 35 14 45 0 15 -5 17 -29 12 -17 -3
-32 -2 -36 4 -3 6 -17 11 -30 11 -13 0 -25 3 -27 8 -5 11 -68 42 -87 42 -18 0
-41 -38 -41 -66 0 -26 -41 -36 -85 -22 -30 10 -44 22 -59 51 -22 47 -15 103
14 112 25 8 16 25 -12 25 -11 0 -22 8 -25 19 -4 16 -9 18 -33 9 -16 -5 -45 -8
-67 -6 -31 2 -41 9 -52 32 -12 26 -12 33 1 55 13 24 19 26 83 24 50 -1 72 -6
81 -17 6 -9 21 -16 33 -16 20 0 22 -4 16 -29 -5 -26 -1 -35 36 -70 44 -44 57
-48 80 -28 23 19 51 66 44 77 -10 16 18 50 31 39 8 -7 14 -6 19 1 4 7 -2 18
-14 26 -12 8 -21 23 -21 34 0 10 -15 27 -34 38 -21 12 -36 30 -38 44 -3 21 -7
23 -48 20 -66 -4 -103 28 -102 88 1 75 64 102 136 59 31 -18 36 -26 36 -58 0
-46 5 -52 35 -41 24 9 46 -2 90 -46 13 -13 29 -24 34 -24 6 0 24 -20 41 -45
17 -25 43 -53 56 -62 25 -16 26 -15 47 10 18 22 35 29 87 36 35 4 66 13 68 20
2 6 21 34 43 61 45 56 47 70 18 96 -12 11 -18 26 -15 39 10 40 -16 56 -90 57
-73 0 -106 9 -131 33 -20 20 -33 10 -33 -24 0 -21 -6 -30 -22 -35 -36 -9 -41
-7 -35 14 3 11 1 20 -4 20 -5 0 -9 -4 -9 -9 0 -5 -11 -8 -25 -8 -17 0 -25 5
-25 17 0 24 36 54 52 44 9 -5 8 -2 -2 11 -14 17 -13 18 15 12 17 -3 38 -9 47
-12 14 -6 18 1 24 42 8 65 41 87 113 73 51 -10 86 -4 139 24 43 22 68 20 99
-8 25 -23 25 -26 13 -68 -25 -88 -24 -103 4 -116 15 -6 29 -20 33 -29 11 -31
35 -53 60 -53 21 0 22 -3 13 -20 -7 -14 -7 -20 0 -20 5 0 10 -6 10 -14 0 -21
18 -30 34 -17 10 8 17 7 26 -4 9 -11 17 -12 31 -4 14 7 25 6 41 -6 32 -21 38
-19 38 15 0 28 -2 29 -26 20 -14 -6 -27 -10 -28 -10 -2 0 -3 19 -3 42 0 26 -6
46 -16 53 -14 10 -13 12 4 23 28 18 33 15 48 -20 22 -49 38 -57 109 -52 36 2
62 -1 62 -6 0 -6 9 -5 20 2 19 12 20 24 20 200 l0 188 -125 0 -125 0 0 -25 c0
-25 -41 -55 -75 -55 -28 0 -76 34 -81 57 l-6 23 -509 0 c-450 0 -509 -2 -509
-15 0 -9 7 -18 15 -21 8 -4 15 -12 15 -19 0 -8 13 -24 29 -37 40 -32 49 -80
20 -107 -33 -30 -61 -26 -103 15 -34 33 -40 35 -93 33 -47 -2 -58 1 -73 19
-14 17 -25 21 -49 16 -19 -4 -31 -2 -31 4 0 15 29 42 45 42 16 0 35 30 35 54
0 14 -17 16 -111 16 -102 0 -111 -1 -104 -17 5 -10 10 -33 13 -50 3 -27 0 -34
-21 -44 -14 -6 -36 -9 -50 -5 -31 7 -92 64 -101 94 -7 21 -13 22 -93 22 l-85
0 56 -61z m461 -89 c4 -6 12 -7 18 -3 7 3 4 -3 -6 -14 -18 -21 -17 -22 62
-110 68 -75 81 -93 81 -123 0 -29 -6 -39 -30 -53 -25 -15 -33 -16 -52 -5 -43
24 -135 133 -166 197 -37 75 -36 71 -17 71 9 0 18 7 22 16 10 27 75 45 88 24z
m1385 -239 c0 -5 -11 -11 -25 -13 -29 -6 -33 6 -8 21 18 10 33 6 33 -8z m-765
-711 c10 -11 14 -21 9 -21 -57 -8 -71 -2 -60 26 8 21 30 19 51 -5z m-1677 -46
c18 -8 32 -19 32 -24 0 -5 6 -15 14 -22 7 -8 24 -34 36 -59 12 -24 29 -52 38
-61 17 -20 13 -22 -21 -9 l-25 10 26 -49 c26 -46 94 -138 306 -410 216 -279
253 -326 309 -394 65 -80 76 -109 56 -145 -21 -36 -39 -38 -39 -3 0 17 -13 47
-32 73 -30 41 -346 438 -358 449 -3 3 -61 75 -129 160 -128 159 -238 289 -256
302 -5 4 -34 13 -63 20 -43 9 -61 9 -90 -2 -63 -22 -381 -169 -513 -236 -69
-35 -135 -64 -146 -64 -11 0 -51 -14 -89 -31 -73 -33 -111 -50 -289 -131 -120
-54 -155 -80 -155 -113 0 -24 154 -277 288 -472 49 -73 92 -136 94 -140 1 -4
37 -60 78 -123 114 -173 119 -182 110 -205 -5 -11 -9 -14 -9 -7 -1 7 -18 36
-39 65 -21 29 -41 59 -45 67 -8 18 -25 44 -53 85 -11 17 -92 145 -179 285 -87
140 -190 302 -228 359 -41 62 -70 115 -70 130 1 37 36 61 193 135 74 35 182
86 240 113 58 28 157 75 220 106 63 30 215 102 338 160 122 59 244 121 270
139 26 18 49 33 52 34 3 0 12 3 20 7 54 21 69 21 108 1z m1640 -22 c-2 -9 3
-17 10 -18 23 -3 23 -4 8 -19 -12 -12 -20 -13 -40 -3 -35 15 -36 52 -1 54 18
2 25 -3 23 -14z m-585 -263 c-3 -12 -9 -17 -15 -11 -10 10 0 44 12 37 5 -3 6
-14 3 -26z m-1182 -136 c14 -16 38 -46 54 -68 39 -54 75 -95 103 -120 13 -11
46 -41 73 -67 27 -27 59 -48 69 -48 11 0 20 -3 20 -8 0 -4 14 -23 31 -42 47
-51 88 -139 91 -195 3 -48 2 -49 -27 -51 -58 -3 -209 -88 -179 -100 26 -11 1
-43 -44 -58 -57 -20 -72 -20 -72 0 0 18 -22 13 -83 -18 l-38 -19 -70 48 c-39
26 -75 53 -81 60 -8 10 -23 6 -70 -19 -47 -25 -63 -40 -75 -70 -8 -21 -19 -38
-24 -38 -4 0 -6 -10 -3 -22 13 -57 15 -107 6 -125 -6 -11 -37 -30 -69 -42 -32
-12 -75 -33 -96 -47 -51 -34 -70 -28 -80 21 -45 240 -84 425 -114 547 -31 125
-35 150 -25 170 8 13 50 41 103 68 124 62 142 60 252 -24 48 -36 91 -66 97
-66 5 0 10 -4 10 -9 0 -7 19 -17 70 -36 3 -1 19 -5 35 -10 17 -4 33 -13 37
-18 3 -6 16 -12 27 -14 17 -2 21 2 21 23 0 14 4 23 9 20 5 -3 12 5 15 19 7 26
-25 79 -131 217 -57 75 -56 89 10 123 28 15 56 31 62 36 19 18 61 9 86 -18z
m665 -283 c36 -47 78 -100 93 -119 115 -150 245 -302 277 -326 54 -40 81 -70
88 -97 3 -13 3 -17 0 -10 -3 6 -11 12 -17 12 -7 0 -37 16 -67 35 -30 19 -61
35 -71 35 -11 0 -16 9 -17 31 -1 30 -35 97 -69 134 -10 11 -34 42 -53 68 -51
70 -173 231 -180 237 -15 14 -100 129 -100 136 0 10 24 -19 116 -136z m-1959
-946 c17 -26 17 -27 -12 -50 -38 -31 -42 -30 -65 8 -21 35 -19 45 14 58 34 14
45 11 63 -16z m646 -53 c21 -35 21 -38 2 -38 -8 0 -12 4 -9 9 3 4 -2 15 -10
24 -9 8 -16 20 -16 25 0 18 16 8 33 -20z m1746 -35 c16 -19 -11 -46 -45 -46
-45 0 -21 53 27 59 4 1 12 -5 18 -13z m-2449 -10 c0 -8 -4 -18 -10 -21 -5 -3
-10 3 -10 14 0 12 5 21 10 21 6 0 10 -6 10 -14z m118 2 c20 -20 14 -55 -13
-72 -35 -23 -43 -20 -62 20 -17 34 -17 36 2 50 23 17 57 18 73 2z m1892 -53
c0 -31 -5 -47 -15 -51 -8 -4 -15 -12 -15 -19 0 -7 -19 -25 -42 -41 -24 -15
-56 -42 -73 -59 -16 -18 -42 -39 -56 -48 -61 -37 -281 -149 -302 -153 -12 -2
-23 -8 -25 -14 -2 -5 -12 -10 -23 -10 -11 0 -22 -6 -25 -14 -3 -9 -12 -12 -21
-9 -11 5 -14 3 -8 -6 5 -9 2 -12 -11 -9 -20 4 -254 -111 -289 -141 -11 -10
-45 -32 -75 -49 -106 -59 -112 -62 -133 -51 -13 8 -22 8 -30 0 -6 -6 -16 -11
-22 -11 -5 0 -3 6 5 13 9 7 15 17 15 24 0 15 -15 30 -15 14 0 -7 -4 -9 -10 -6
-5 3 -10 -1 -10 -10 0 -9 -9 -28 -20 -42 -11 -14 -20 -34 -20 -44 0 -11 -6
-19 -13 -19 -18 0 -38 25 -60 73 -9 20 -23 37 -32 37 -8 0 -15 9 -15 21 0 11
-5 29 -10 40 -9 16 -7 19 10 19 13 0 24 -10 30 -26 15 -39 61 -95 72 -88 6 4
8 23 4 44 -7 42 20 80 56 80 11 0 37 8 57 19 41 20 128 52 151 55 8 0 20 6 25
13 6 6 27 21 49 33 31 17 41 19 55 8 9 -7 13 -9 9 -4 -4 5 0 15 8 24 10 10 18
12 22 5 7 -11 34 10 31 23 -2 10 112 84 129 84 7 0 39 17 70 37 31 21 69 43
83 49 15 7 33 21 40 31 17 24 112 77 154 87 42 10 136 55 160 76 28 25 96 60
117 60 15 0 18 -9 18 -45z m468 -18 c-2 -11 -13 -26 -24 -34 -19 -12 -24 -12
-38 2 -22 23 -20 32 11 49 33 17 55 10 51 -17z m442 -9 c0 -5 -7 -8 -15 -8
-15 0 -20 21 -8 33 7 7 23 -11 23 -25z m-600 8 c0 -15 -16 -30 -43 -39 -22 -8
-34 18 -17 38 16 19 60 20 60 1z m-2122 -59 c17 -28 17 -29 -13 -53 -40 -32
-49 -30 -75 11 -23 37 -20 51 14 65 34 14 56 7 74 -23z m2150 -14 c4 -30 -39
-53 -63 -33 -20 17 -19 37 3 49 27 17 57 9 60 -16z m-174 -1 c7 -11 -5 -27
-30 -40 -18 -9 -25 -8 -35 4 -11 14 -10 18 6 30 21 15 51 18 59 6z m-3425 -51
c8 -5 24 -6 35 -1 23 8 66 -4 78 -23 4 -7 8 -24 8 -39 0 -31 13 -34 50 -13 30
17 62 18 112 5 74 -21 94 -78 36 -100 -36 -13 -44 -17 -80 -42 -21 -15 -32
-16 -84 -7 -111 20 -138 31 -171 65 -17 19 -38 34 -47 34 -29 0 -66 23 -66 42
0 58 82 108 129 79z m3449 -27 c4 -27 -21 -47 -48 -39 -38 12 -16 69 25 63 11
-2 21 -12 23 -24z m-160 -5 c3 -17 -43 -43 -59 -34 -13 8 -11 29 3 43 17 17
52 11 56 -9z m-3614 -20 c12 -11 -30 -98 -51 -106 -8 -3 -19 -1 -26 6 -6 6
-21 11 -34 11 -33 0 -38 22 -17 70 l18 41 51 -6 c27 -4 54 -11 59 -16z m3634
-31 c18 -18 14 -42 -9 -57 -19 -11 -24 -10 -43 9 l-21 21 24 20 c27 22 33 23
49 7z m-160 -21 c4 -18 -33 -41 -54 -33 -21 8 -17 32 9 44 27 13 41 10 45 -11z
m33 -69 c10 -18 8 -24 -12 -39 -16 -12 -29 -15 -40 -8 -27 14 -30 37 -6 54 29
21 44 19 58 -7z m-2711 -3 c0 -8 -9 -15 -20 -15 -13 0 -18 5 -14 15 4 8 12 15
20 15 8 0 14 -7 14 -15z m-609 -54 c23 -19 23 -21 9 -48 -22 -39 -60 -38 -79
1 -13 27 -12 31 9 48 28 23 32 22 61 -1z m-421 -66 c25 -30 -18 -71 -46 -44
-12 13 -12 18 2 37 18 26 27 27 44 7z m673 -144 c11 -2 25 -44 20 -58 -3 -7
-21 -15 -40 -19 -19 -4 -69 -21 -111 -38 -76 -32 -122 -36 -122 -12 0 20 22
41 91 88 63 43 97 51 162 39z m2307 -56 c10 -12 6 -18 -22 -34 -31 -19 -33
-20 -40 -3 -4 11 1 23 14 35 25 21 32 21 48 2z m-2601 -39 c-2 -2 -14 -7 -26
-10 -26 -8 -32 11 -11 32 10 10 15 9 27 -3 8 -8 13 -16 10 -19z m407 -24 c19
-18 34 -43 38 -67 4 -21 19 -60 33 -86 13 -27 22 -53 18 -59 -11 -18 -75 -9
-75 12 0 6 -14 30 -30 55 -45 66 -60 99 -60 131 0 51 29 57 76 14z m2222 -4
c18 -18 14 -46 -7 -58 -29 -15 -39 -13 -52 12 -10 18 -8 24 11 40 26 21 32 22
48 6z m-170 -18 c3 -16 -51 -54 -62 -43 -11 12 -6 36 12 49 21 17 46 14 50 -6z
m-2375 -30 c22 0 27 -4 27 -25 0 -14 -4 -25 -10 -25 -5 0 -10 -11 -10 -25 0
-28 -25 -44 -43 -26 -6 6 -21 11 -32 11 -31 0 -34 7 -22 43 5 18 12 38 14 46
2 8 11 11 26 7 12 -3 34 -6 50 -6z m-430 -15 c4 -8 2 -17 -4 -20 -5 -4 -7 -11
-4 -16 9 -13 -19 -11 -33 3 -7 7 -12 20 -12 30 0 22 45 25 53 3z m2838 -31 c5
-15 8 -28 7 -29 -2 -1 -14 -8 -27 -15 -22 -11 -27 -10 -44 11 -18 23 -18 23 5
41 32 24 47 22 59 -8z m-2831 -37 c0 -8 7 -28 16 -46 21 -42 6 -61 -47 -61
-48 0 -51 16 -9 62 17 18 28 38 25 45 -2 7 0 13 5 13 6 0 10 -6 10 -13z m127
-3 c8 -21 -13 -42 -28 -27 -13 13 -5 43 11 43 6 0 13 -7 17 -16z m870 -130
c-7 -7 -37 7 -37 17 0 6 9 5 21 -1 11 -7 19 -14 16 -16z m-507 -28 c0 -3 -4
-8 -10 -11 -5 -3 -10 -1 -10 4 0 6 5 11 10 11 6 0 10 -2 10 -4z m156 -84 c-4
-12 -16 -24 -27 -27 -45 -15 -71 57 -26 74 29 12 62 -17 53 -47z m-362 -54
c15 -24 -3 -52 -37 -56 -29 -4 -63 37 -53 64 8 21 75 15 90 -8z m1801 1 c4 -5
4 -21 1 -35 -9 -35 -59 -31 -64 5 -5 34 46 59 63 30z m-2015 -69 c-46 -25 -64
-25 -25 -1 17 11 37 20 45 20 8 0 -1 -8 -20 -19z m824 -9 c11 -13 15 -27 11
-40 -9 -30 -43 -27 -56 6 -19 49 11 72 45 34z m652 -172 c10 -17 -13 -36 -27
-22 -12 12 -4 33 11 33 5 0 12 -5 16 -11z m-1558 -20 c4 -19 -27 -34 -41 -20
-14 14 0 43 20 39 10 -2 19 -10 21 -19z m1500 -20 c-2 -6 -8 -10 -13 -10 -5 0
-11 4 -13 10 -2 6 4 11 13 11 9 0 15 -5 13 -11z m1042 -129 c0 -23 -25 -33
-40 -15 -17 21 6 61 26 44 8 -6 14 -19 14 -29z m-90 -36 c11 -12 11 -18 -2
-30 -14 -14 -17 -14 -32 1 -13 13 -14 20 -5 31 15 18 24 18 39 -2z"/>
<path d="M2806 2589 c11 -19 22 -79 14 -79 -4 0 -1 -20 8 -45 15 -48 25 -55
40 -29 5 9 11 15 13 14 4 -2 59 11 59 14 0 17 -47 84 -75 106 -37 30 -73 41
-59 19z"/>
<path d="M3208 2583 c7 -3 16 -2 19 1 4 3 -2 6 -13 5 -11 0 -14 -3 -6 -6z"/>
<path d="M2904 1105 c-10 -8 -14 -15 -8 -15 5 0 19 7 30 15 10 8 14 15 8 15
-5 0 -19 -7 -30 -15z"/>
<path d="M2626 4488 c38 -44 45 -50 52 -44 3 4 2 10 -4 14 -6 4 -16 17 -23 30
-6 12 -19 22 -28 22 -14 0 -14 -3 3 -22z"/>
<path d="M3238 4503 c-10 -2 -18 -8 -18 -13 0 -17 15 -16 33 2 17 18 16 19
-15 11z"/>
<path d="M241 4471 c-1 -8 -19 -31 -42 -52 -35 -32 -39 -40 -29 -58 20 -38 37
-24 65 51 9 25 15 52 12 60 -4 10 -6 10 -6 -1z"/>
<path d="M390 4381 c0 -5 7 -11 15 -15 8 -3 12 -12 9 -21 -8 -20 20 -62 46
-70 16 -5 19 -10 10 -20 -13 -15 10 -59 36 -69 8 -3 14 -15 14 -26 0 -30 28
-80 45 -80 8 0 15 -6 15 -14 0 -20 37 -63 46 -53 4 4 1 19 -7 33 -7 15 -12 37
-11 49 2 15 -7 31 -27 48 -17 14 -31 34 -31 45 0 10 -13 33 -30 50 -16 18 -30
40 -30 50 0 10 -16 32 -35 51 -19 18 -35 37 -35 42 0 5 -7 9 -15 9 -8 0 -15
-4 -15 -9z"/>
<path d="M2976 4351 c-4 -5 4 -22 17 -38 13 -15 29 -37 36 -48 11 -18 12 -17
6 10 -14 70 -41 105 -59 76z"/>
<path d="M3305 4280 c10 -11 22 -20 27 -20 4 0 3 9 -4 20 -7 11 -19 20 -27 20
-11 0 -10 -5 4 -20z"/>
<path d="M5 4269 c-11 -17 1 -21 15 -4 8 9 8 15 2 15 -6 0 -14 -5 -17 -11z"/>
<path d="M3040 4231 c0 -11 29 -35 35 -29 2 2 -4 12 -15 21 -11 9 -20 13 -20
8z"/>
<path d="M3744 4206 c-18 -14 -18 -15 -1 -21 22 -9 23 -78 1 -120 -14 -27 -14
-31 1 -41 9 -7 20 -25 24 -41 5 -20 20 -34 54 -51 47 -23 47 -24 47 -73 0 -48
1 -50 23 -43 12 3 29 13 38 20 10 9 33 13 65 11 42 -3 52 -9 70 -35 20 -29 22
-30 43 -16 16 12 19 19 12 28 -6 7 -8 16 -4 19 3 4 2 7 -4 7 -13 0 -15 70 -3
90 6 9 23 14 48 14 l38 -1 -30 33 c-33 38 -51 44 -43 15 7 -27 -11 -51 -39
-51 -24 0 -83 53 -84 76 0 13 -78 94 -90 94 -4 0 -10 9 -13 19 -3 13 -17 21
-46 26 -28 5 -47 15 -58 31 -18 28 -23 29 -49 10z m143 -288 c-3 -8 -6 -5 -6
6 -1 11 2 17 5 13 3 -3 4 -12 1 -19z"/>
<path d="M2005 4200 c3 -5 10 -10 16 -10 5 0 9 5 9 10 0 6 -7 10 -16 10 -8 0
-12 -4 -9 -10z"/>
<path d="M920 4150 c-17 -11 -4 -40 38 -86 l27 -29 3 43 c3 36 6 42 25 42 20
0 19 2 -8 20 -32 21 -61 25 -85 10z"/>
<path d="M4002 4068 c5 -15 28 -18 29 -3 0 6 -7 12 -17 13 -10 3 -15 -1 -12
-10z"/>
<path d="M4090 4060 c0 -5 5 -10 11 -10 5 0 7 5 4 10 -3 6 -8 10 -11 10 -2 0
-4 -4 -4 -10z"/>
<path d="M780 4013 c1 -23 20 -47 43 -56 15 -6 17 -3 11 16 -7 25 -33 57 -46
57 -4 0 -8 -8 -8 -17z"/>
<path d="M3516 4003 c4 -20 -1 -34 -15 -49 l-20 -22 23 -21 c12 -11 30 -21 40
-21 30 0 76 -30 76 -49 0 -11 18 -34 41 -52 22 -17 45 -43 50 -56 7 -20 15
-24 41 -21 29 3 33 7 33 32 0 23 -7 33 -35 49 -19 10 -39 26 -44 34 -7 13 -10
13 -18 2 -7 -10 -8 -6 -4 13 5 21 1 32 -16 45 -31 26 -60 57 -81 87 -10 14
-31 33 -47 41 l-30 15 6 -27z"/>
<path d="M1720 4000 c0 -5 5 -10 11 -10 5 0 7 5 4 10 -3 6 -8 10 -11 10 -2 0
-4 -4 -4 -10z"/>
<path d="M482 3958 c17 -26 37 -35 34 -16 -3 22 -17 38 -33 38 -14 0 -14 -2
-1 -22z"/>
<path d="M5645 3918 c-7 -16 -18 -22 -33 -21 -29 4 -30 -30 0 -51 30 -22 37
-109 12 -165 -10 -23 -23 -41 -28 -42 -6 0 0 -5 13 -10 41 -16 71 12 71 67 0
32 7 56 25 82 22 32 23 38 10 58 -7 11 -15 39 -17 60 -2 30 -8 40 -23 42 -13
2 -24 -5 -30 -20z"/>
<path d="M850 3906 c0 -16 28 -42 36 -33 8 7 -14 47 -26 47 -6 0 -10 -6 -10
-14z"/>
<path d="M526 3875 c4 -8 8 -15 10 -15 2 0 4 7 4 15 0 8 -4 15 -10 15 -5 0 -7
-7 -4 -15z"/>
<path d="M4242 3885 c4 -5 3 -14 -4 -22 -6 -7 -8 -16 -4 -20 3 -3 6 0 6 7 0 9
8 6 24 -9 16 -15 26 -19 31 -11 8 13 -10 37 -39 52 -12 6 -18 7 -14 3z"/>
<path d="M1 3820 c-1 -50 0 -53 15 -38 15 15 15 20 1 55 l-16 38 0 -55z"/>
<path d="M5403 3853 c-17 -3 -23 -11 -23 -30 0 -23 3 -25 31 -19 17 3 35 6 40
6 5 0 9 6 9 14 0 8 6 17 13 20 6 3 2 3 -10 0 -13 -3 -23 -1 -23 5 0 6 -3 10
-7 10 -5 -1 -18 -4 -30 -6z"/>
<path d="M1125 3809 c-4 -5 0 -18 9 -28 9 -10 16 -25 16 -34 0 -9 3 -17 8 -17
4 0 6 20 4 45 -4 44 -22 60 -37 34z"/>
<path d="M5838 3799 c-14 -8 -18 -24 -18 -74 0 -48 3 -63 13 -59 16 6 46 101
40 125 -6 21 -11 23 -35 8z"/>
<path d="M220 3762 c0 -10 8 -27 19 -38 10 -11 21 -29 25 -40 4 -10 20 -35 36
-54 25 -31 30 -33 36 -17 8 21 -14 67 -32 67 -14 0 -24 22 -24 54 0 12 -5 27
-12 34 -18 18 -48 15 -48 -6z"/>
<path d="M5220 3732 c0 -5 7 -16 16 -23 14 -12 16 -11 13 5 -4 20 -29 35 -29
18z"/>
<path d="M4424 3670 c-24 -72 -42 -185 -22 -140 6 14 20 44 30 67 13 27 18 58
16 90 l-3 48 -21 -65z"/>
<path d="M970 3701 c0 -11 15 -28 35 -40 40 -23 45 -13 13 29 -25 34 -48 39
-48 11z"/>
<path d="M660 3656 c0 -7 7 -19 15 -26 16 -13 20 -3 9 24 -8 20 -24 21 -24 2z"/>
<path d="M4025 3650 c-3 -5 2 -10 12 -10 10 0 14 -4 8 -8 -5 -4 -17 -20 -25
-37 -24 -46 -50 -43 -105 12 -29 30 -49 43 -52 36 -2 -7 -10 -13 -18 -13 -7 0
-15 -13 -18 -30 -5 -21 -12 -30 -26 -30 -11 0 -22 -4 -25 -8 -3 -5 -18 -7 -33
-5 -21 3 -31 -1 -41 -17 -11 -19 -9 -25 18 -58 17 -20 49 -56 72 -78 40 -41
41 -41 59 -23 20 20 45 26 34 9 -7 -12 12 -40 26 -40 5 0 9 9 9 19 0 33 28 32
54 -2 22 -27 28 -30 44 -20 18 11 19 8 17 -41 -3 -60 -12 -96 -26 -96 -5 0 -9
-18 -9 -40 0 -30 5 -42 18 -47 9 -3 29 -17 43 -30 22 -20 31 -23 47 -14 15 8
28 8 47 -1 22 -10 29 -8 55 17 l29 28 -24 18 c-13 11 -28 19 -34 19 -15 0 -13
57 4 105 8 22 15 55 15 72 0 18 9 59 19 90 11 32 22 85 25 118 3 33 9 70 12
82 5 17 1 22 -26 28 -20 4 -42 1 -65 -9 -39 -19 -92 -18 -99 1 -6 15 -32 17
-41 3z"/>
<path d="M5820 3645 c0 -5 5 -17 10 -25 5 -8 10 -10 10 -5 0 6 -5 17 -10 25
-5 8 -10 11 -10 5z"/>
<path d="M1042 3608 c3 -7 13 -15 24 -17 16 -3 17 -1 5 13 -16 19 -34 21 -29
4z"/>
<path d="M690 3595 c0 -21 17 -45 32 -45 14 0 9 17 -12 41 -19 23 -19 23 -20
4z"/>
<path d="M385 3470 c-6 -10 19 -65 35 -75 6 -4 17 -22 25 -42 8 -19 26 -48 40
-65 14 -16 25 -34 25 -40 0 -6 13 -32 29 -57 16 -25 31 -58 35 -73 5 -22 15
-29 62 -43 70 -20 88 -17 92 17 3 28 44 68 69 68 8 0 27 -7 43 -15 26 -13 30
-21 30 -55 0 -41 13 -58 33 -42 18 14 57 21 57 11 0 -8 48 -2 59 8 3 2 -8 16
-22 31 -20 21 -27 38 -27 69 0 34 -4 42 -22 47 -36 9 -88 7 -88 -4 0 -5 -14
-17 -30 -25 -27 -14 -34 -14 -63 -1 -17 8 -47 17 -65 20 -19 3 -50 19 -70 36
-25 20 -38 26 -43 18 -6 -9 -14 -9 -33 0 -21 9 -26 19 -26 47 0 30 -5 39 -35
56 -29 17 -35 27 -35 54 0 45 -56 86 -75 55z"/>
<path d="M4371 3454 c0 -11 3 -14 6 -6 3 7 2 16 -1 19 -3 4 -6 -2 -5 -13z"/>
<path d="M7 3443 c-4 -3 -7 -263 -7 -576 0 -538 1 -569 18 -562 52 22 122 9
122 -22 0 -12 8 -14 38 -10 28 5 45 1 67 -13 38 -25 121 -27 153 -4 13 9 32
14 43 11 10 -3 17 -1 14 3 -3 5 7 11 23 15 16 3 35 18 45 35 22 36 76 49 121
30 33 -14 79 -16 159 -5 l48 7 -6 37 c-4 20 -9 47 -12 61 -3 14 -5 33 -4 42 1
9 -6 18 -16 20 -14 2 -12 6 10 21 32 21 62 24 132 14 60 -9 87 3 62 27 -8 9
-25 16 -36 16 -12 0 -21 6 -21 14 0 15 -73 46 -107 46 -12 0 -61 13 -108 29
-74 25 -90 27 -111 17 -13 -7 -21 -16 -18 -19 12 -12 -38 -28 -68 -22 -28 7
-30 5 -26 -13 3 -12 1 -23 -6 -25 -6 -3 -1 -12 12 -22 18 -13 22 -23 17 -42
-3 -14 -1 -30 4 -37 5 -6 11 -31 12 -54 3 -49 -4 -57 -97 -102 -74 -36 -93
-37 -126 -6 -20 18 -25 30 -21 52 8 40 17 50 92 92 43 24 60 38 49 40 -12 2
-18 13 -18 28 0 20 -9 29 -47 45 -26 11 -51 26 -55 32 -11 17 -10 65 3 88 9
17 3 26 -35 62 -34 31 -49 54 -58 91 -12 47 -12 49 15 72 23 20 32 22 48 13
12 -6 22 -9 24 -7 2 2 -7 27 -20 56 l-24 52 -35 -21 c-37 -22 -53 -21 -118 9
-32 14 -38 22 -38 48 0 16 -16 69 -35 117 -38 94 -44 134 -20 143 8 4 15 14
15 24 0 11 5 22 10 25 17 10 -8 35 -35 35 -12 0 -25 -3 -28 -7z m219 -1005 c7
-25 -21 -58 -51 -58 -12 0 -29 8 -39 19 -18 20 -12 51 10 51 8 0 14 4 14 9 0
14 33 19 47 8 7 -5 15 -18 19 -29z"/>
<path d="M5789 3413 c0 -5 -2 -17 -4 -28 -18 -113 -18 -109 4 -129 20 -18 21
-18 29 5 5 13 12 23 16 22 3 -2 16 -3 29 -3 21 1 21 1 -6 25 -19 17 -29 38
-34 70 -3 28 -11 45 -19 45 -8 0 -14 -3 -15 -7z"/>
<path d="M5952 3339 c-7 -11 -24 -24 -37 -29 -31 -12 -32 -31 -1 -67 13 -16
27 -45 31 -66 7 -35 8 -36 28 -22 35 24 72 19 101 -16 14 -17 26 -35 26 -40 0
-5 5 -9 10 -9 6 0 10 42 10 107 0 100 -1 106 -16 85 -9 -13 -26 -22 -41 -22
-31 0 -83 36 -83 58 0 32 -15 43 -28 21z"/>
<path d="M2167 3344 c-3 -3 11 -38 31 -76 l37 -70 14 62 c12 57 12 62 -5 75
-19 15 -66 20 -77 9z"/>
<path d="M5609 3318 c-16 -13 -34 -84 -44 -173 -4 -39 -11 -56 -35 -77 -17
-16 -34 -28 -38 -28 -4 0 -20 12 -36 27 l-29 26 7 99 c7 96 2 114 -23 84 -6
-7 -40 -17 -75 -21 l-64 -6 -4 -56 c-4 -46 -10 -59 -34 -78 -39 -32 -87 -27
-131 13 -34 30 -35 30 -53 12 -10 -10 -21 -16 -24 -12 -3 3 -6 -9 -6 -26 0
-32 -30 -62 -77 -76 -18 -6 -23 -15 -23 -43 0 -20 -5 -64 -11 -98 -9 -55 -14
-63 -44 -79 -30 -17 -40 -17 -78 -7 -101 29 -126 -9 -57 -87 23 -26 51 -57 63
-69 12 -12 27 -27 32 -33 32 -36 59 -60 69 -60 7 0 13 17 14 37 2 20 9 41 17
47 8 6 17 23 20 38 5 21 2 30 -14 40 -16 10 -21 23 -21 55 0 23 5 45 10 48 6
4 7 11 4 17 -5 7 -2 8 6 3 7 -4 16 -2 21 6 13 21 88 17 104 -5 8 -10 18 -15
23 -12 12 7 2 -95 -10 -111 -7 -8 -7 -13 -1 -13 17 0 33 49 27 80 -4 19 -2 30
5 30 6 0 11 -11 11 -25 0 -25 14 -33 25 -15 3 6 16 10 28 10 20 0 19 3 -10 26
-27 21 -33 32 -33 64 0 34 4 42 30 55 16 8 43 15 60 15 23 0 33 6 42 24 15 34
30 38 130 41 82 3 89 1 113 -22 27 -28 28 -30 27 -85 -1 -36 1 -38 29 -38 23
0 32 6 42 28 6 15 17 33 24 40 7 7 13 18 13 23 0 12 47 12 71 -1 10 -6 19 -15
19 -21 0 -5 9 -22 20 -38 17 -22 19 -32 11 -54 -6 -15 -15 -27 -20 -27 -28 0
-40 -120 -16 -166 8 -16 15 -38 15 -48 0 -39 11 -6 31 95 11 57 20 122 20 144
-1 22 7 57 18 79 19 35 19 40 4 63 -12 19 -14 39 -9 93 3 39 4 70 0 70 -24 0
-42 -25 -48 -64 -6 -35 -14 -50 -42 -71 l-34 -26 -30 30 c-26 25 -30 37 -30
81 0 28 5 60 10 71 6 10 10 53 8 95 -3 67 -5 74 -19 62z m-465 -265 c-9 -39
-13 -43 -28 -37 -21 8 -26 52 -7 57 37 10 41 7 35 -20z"/>
<path d="M2007 3274 c-4 -4 3 -20 14 -36 27 -38 36 -30 11 11 -10 17 -22 28
-25 25z"/>
<path d="M4300 3229 c0 -30 -6 -50 -22 -66 -12 -13 -16 -23 -10 -23 18 0 82
33 82 42 0 4 7 8 15 8 10 0 14 10 12 38 -2 35 -4 37 -39 40 l-38 3 0 -42z"/>
<path d="M1112 3138 c3 -33 3 -33 63 -35 33 -1 63 3 66 9 4 6 18 2 36 -12 37
-27 77 -24 81 7 3 23 0 24 -103 39 -27 4 -55 7 -62 5 -6 -1 -14 3 -18 9 -3 5
-20 10 -36 10 -28 0 -30 -2 -27 -32z"/>
<path d="M1907 3106 c21 -28 28 -26 18 3 -3 12 -13 21 -21 21 -12 0 -12 -4 3
-24z"/>
<path d="M5908 2969 c-28 -28 -36 -49 -18 -49 5 0 10 -30 12 -67 3 -71 22 -96
34 -46 4 15 14 33 23 40 14 10 14 16 2 45 -7 18 -16 49 -20 69 l-6 36 -27 -28z"/>
<path d="M776 2843 c-22 -12 -26 -17 -15 -24 18 -11 56 -12 63 0 3 4 0 15 -7
24 -11 14 -15 14 -41 0z"/>
<path d="M6074 2773 c-20 -4 -22 -12 -27 -121 -6 -135 2 -228 21 -224 6 1 12
-2 12 -8 0 -5 9 -10 20 -10 19 0 20 7 20 185 0 142 -3 185 -12 184 -7 -1 -23
-4 -34 -6z"/>
<path d="M5892 2653 c-7 -12 -8 -39 -3 -69 l7 -49 13 59 c9 39 10 61 3 68 -7
7 -14 4 -20 -9z"/>
<path d="M4600 2554 c-68 -52 -68 -65 2 -70 24 -2 57 -6 74 -10 24 -4 33 -2
38 11 3 10 1 24 -5 31 -6 8 -8 21 -5 30 6 15 -22 54 -38 54 -2 0 -32 -21 -66
-46z"/>
<path d="M1080 2381 c0 -5 5 -13 10 -16 6 -3 10 -2 10 4 0 5 -4 13 -10 16 -5
3 -10 2 -10 -4z"/>
<path d="M4973 2233 c-18 -6 -16 -23 1 -23 17 0 30 16 19 23 -5 2 -14 2 -20 0z"/>
<path d="M4917 2224 c-4 -4 -4 -10 -1 -15 6 -10 34 0 34 12 0 10 -24 12 -33 3z"/>
<path d="M5695 2190 c-3 -5 -2 -10 4 -10 5 0 13 5 16 10 3 6 2 10 -4 10 -5 0
-13 -4 -16 -10z"/>
<path d="M0 2126 c0 -44 14 -62 39 -47 8 6 9 15 2 34 -7 17 -7 28 0 32 14 9 1
25 -22 25 -16 0 -19 -7 -19 -44z"/>
<path d="M5091 2149 c-13 -5 -35 -8 -49 -7 -19 2 -27 -2 -30 -16 -3 -16 0 -18
19 -11 13 4 35 8 48 9 13 2 28 10 33 19 5 9 8 17 6 16 -2 0 -14 -5 -27 -10z"/>
<path d="M1696 2091 c-9 -14 4 -41 20 -41 15 0 17 10 8 34 -7 18 -20 21 -28 7z"/>
<path d="M5763 2066 c0 -14 3 -26 7 -26 11 0 8 -34 -5 -46 -6 -7 -20 -13 -30
-15 -10 -2 -20 -10 -21 -17 -1 -7 0 -8 3 -2 2 5 13 10 23 10 9 0 23 7 30 15 7
8 18 15 24 15 6 0 28 5 49 11 33 9 38 14 35 36 -2 20 -9 27 -28 29 -14 2 -39
6 -56 9 -29 6 -31 5 -31 -19z"/>
<path d="M5128 2045 c-6 -11 -16 -23 -22 -27 -6 -4 3 -8 21 -8 17 0 37 -2 45
-5 8 -3 17 7 23 27 10 33 10 33 -23 33 -24 0 -37 -6 -44 -20z"/>
<path d="M5298 1981 c-42 -23 -50 -24 -69 -13 -24 15 -34 8 -45 -35 -7 -26
-47 -54 -89 -63 -26 -5 -30 -11 -33 -43 -2 -20 -11 -42 -21 -49 -13 -10 -18
-30 -19 -77 -2 -36 -7 -70 -13 -77 -6 -7 -8 -18 -4 -24 4 -7 -2 -14 -13 -17
-18 -4 -20 -11 -16 -62 l4 -58 -42 -16 c-47 -19 -45 -24 17 -48 45 -17 76 -15
135 9 27 10 34 12 51 12 5 0 7 5 4 10 -3 6 2 10 12 10 21 0 47 -36 37 -51 -3
-6 -13 -8 -22 -4 -10 4 -30 -9 -57 -35 -33 -33 -52 -43 -91 -48 l-49 -7 39
-24 c24 -16 58 -26 89 -28 30 -1 73 -14 103 -29 37 -19 60 -25 79 -20 14 4 23
11 20 16 -8 13 63 24 78 12 6 -6 28 -12 47 -14 26 -2 35 -8 34 -20 -1 -10 7
-20 18 -24 28 -8 18 -39 -12 -39 -18 0 -27 -8 -34 -27 -8 -22 -4 -32 23 -67
38 -48 55 -50 101 -16 18 13 37 22 41 19 15 -9 -2 -31 -34 -45 -44 -19 -46
-42 -4 -57 43 -16 86 -15 117 3 22 12 29 11 60 -7 63 -38 73 -60 40 -98 -23
-27 -24 -31 -9 -63 18 -39 43 -49 77 -30 19 11 37 14 56 9 26 -6 28 -10 21
-43 -5 -29 -3 -38 14 -50 23 -15 29 -55 9 -50 -9 1 -14 -13 -16 -42 -5 -66
-49 -92 -85 -51 -9 11 -23 20 -31 20 -7 0 -16 12 -19 28 -3 15 -12 36 -20 47
-13 17 -18 18 -42 7 -20 -9 -26 -18 -22 -32 3 -11 1 -20 -4 -20 -5 0 -9 5 -9
10 0 6 -11 8 -27 4 -25 -7 -27 -6 -15 9 12 14 11 20 -5 41 -20 29 -41 32 -68
12 -17 -12 -18 -16 -5 -32 14 -16 13 -17 -5 -10 -16 6 -18 5 -7 -5 18 -19 15
-37 -8 -49 -23 -12 -50 5 -42 28 2 6 -3 12 -12 12 -9 0 -16 -4 -16 -10 0 -15
-21 -12 -42 6 -25 24 -49 3 -41 -37 6 -32 -15 -41 -37 -14 -9 11 -17 12 -32 4
-15 -8 -17 -14 -9 -22 6 -6 11 -21 11 -34 0 -19 -4 -22 -23 -18 -16 4 -28 0
-38 -11 -13 -16 -12 -17 5 -11 10 4 25 2 32 -4 37 -31 -9 -62 -51 -35 -22 15
-25 15 -25 1 0 -8 5 -15 10 -15 6 0 10 -4 10 -10 0 -11 19 -35 65 -84 17 -17
37 -47 46 -66 25 -53 115 -150 127 -138 6 6 12 6 18 -3 4 -7 3 -14 -4 -17 -15
-5 -16 -32 -2 -32 6 0 10 -7 10 -15 0 -13 40 -15 300 -15 293 0 300 0 300 20
0 11 -6 20 -14 20 -8 0 -16 7 -20 15 -4 11 -13 14 -31 9 -14 -3 -25 -2 -25 4
0 5 -18 28 -41 52 -23 24 -38 48 -35 56 3 9 -1 14 -14 14 -27 0 -25 9 12 47
26 27 29 33 14 33 -15 0 -16 3 -6 14 13 17 90 56 108 56 7 0 12 5 12 10 0 6
-7 10 -14 10 -16 0 -88 -36 -126 -63 -21 -15 -26 -15 -52 1 -15 9 -28 24 -28
33 0 21 32 33 60 24 19 -6 65 20 108 62 7 7 23 13 34 13 16 0 19 5 15 26 -3
18 -1 22 6 15 6 -6 17 -11 24 -11 11 0 13 76 13 406 -1 223 -4 412 -7 420 -6
16 -39 19 -48 4 -3 -5 1 -20 9 -32 17 -23 21 -58 8 -58 -4 0 -24 9 -44 20 -31
17 -38 17 -48 5 -7 -8 -23 -15 -36 -15 -13 0 -33 -9 -44 -20 -18 -18 -70 -29
-70 -14 0 13 22 44 31 44 6 0 32 19 60 42 36 31 47 48 43 61 -5 16 -3 17 14 8
30 -16 60 -13 70 5 6 12 18 15 36 12 l26 -5 0 93 c0 52 -4 96 -10 99 -6 4 -8
10 -5 15 3 5 -5 12 -17 16 -26 8 -38 22 -38 47 0 23 19 22 47 -5 l23 -21 0
125 0 125 -36 39 c-20 22 -42 47 -49 57 -7 10 -29 20 -48 24 -31 5 -40 1 -67
-26 -36 -36 -35 -48 7 -76 16 -11 38 -37 48 -58 22 -45 14 -66 -31 -82 -16 -5
-37 -18 -46 -27 -10 -10 -24 -18 -31 -18 -20 0 -58 30 -67 54 -7 17 -9 17 -9
4 -1 -14 -10 -18 -39 -18 -21 0 -44 -6 -51 -12 -11 -10 -12 -10 -7 -1 5 9 -2
11 -26 8 -24 -3 -26 -3 -10 3 24 7 24 7 4 30 -24 27 -34 28 -52 3 -7 -11 -17
-18 -21 -15 -12 7 -39 -7 -33 -17 5 -9 -11 -19 -41 -23 -9 -1 -20 -8 -25 -15
-4 -7 -16 -11 -26 -7 -11 3 -24 2 -30 -2 -18 -11 -23 -61 -8 -73 8 -6 14 -24
14 -40 0 -23 -6 -32 -27 -40 -16 -6 -53 -22 -84 -36 -64 -29 -93 -27 -97 5 -3
16 2 22 16 22 32 0 49 31 51 95 3 77 22 120 60 139 21 12 29 21 25 34 -5 13
-4 14 4 3 5 -7 15 -10 22 -6 9 6 9 10 -1 17 -10 6 -7 8 11 6 16 -2 24 2 23 10
-2 6 6 12 18 12 11 0 34 9 50 21 l30 21 -26 20 c-14 10 -35 18 -47 17 -29 -4
-49 8 -42 25 7 17 -27 31 -37 15 -7 -12 -26 55 -21 74 4 13 -22 5 -70 -22z
m62 -1 c0 -5 -8 -10 -17 -10 -15 0 -16 2 -3 10 19 12 20 12 20 0z m137 -106
c-3 -3 -12 -4 -19 -1 -8 3 -5 6 6 6 11 1 17 -2 13 -5z m3 -33 c0 -5 -9 -11
-20 -14 -22 -6 -28 8 -7 16 19 8 27 8 27 -2z m140 -111 c0 -5 -4 -10 -10 -10
-5 0 -10 5 -10 10 0 6 5 10 10 10 6 0 10 -4 10 -10z m405 -60 c-3 -5 -11 -10
-16 -10 -6 0 -7 5 -4 10 3 6 11 10 16 10 6 0 7 -4 4 -10z m-608 -62 c-3 -8 -6
-5 -6 6 -1 11 2 17 5 13 3 -3 4 -12 1 -19z m-172 2 c3 -5 1 -10 -4 -10 -6 0
-11 5 -11 10 0 6 2 10 4 10 3 0 8 -4 11 -10z m702 -58 c32 2 38 -1 49 -27 10
-25 12 -26 16 -10 3 19 5 18 31 -8 31 -30 28 -50 -6 -45 -18 2 -23 -3 -25 -25
-2 -17 4 -37 14 -48 20 -23 2 -26 -20 -3 -23 22 -59 14 -67 -16 -4 -14 -7 -19
-8 -12 -1 16 -56 15 -70 -2 -15 -18 -45 -26 -61 -16 -15 9 -4 50 14 50 8 0 19
7 26 15 10 13 8 19 -14 36 -33 26 -34 57 -1 69 14 5 25 15 25 23 0 24 21 37
42 26 11 -6 36 -9 55 -7z m-217 -193 c0 -5 -4 -9 -10 -9 -5 0 -10 7 -10 16 0
8 5 12 10 9 6 -3 10 -10 10 -16z m-90 -28 c7 -14 7 -22 -1 -27 -12 -7 -29 12
-29 34 0 19 18 14 30 -7z m140 -12 c0 -13 -27 -22 -45 -15 -13 4 -14 10 -5 26
9 16 15 18 30 10 11 -6 20 -15 20 -21z m-91 -28 c17 -11 7 -41 -13 -41 -19 0
-28 14 -20 34 7 18 13 19 33 7z m-61 -64 c3 -12 -3 -17 -22 -17 -25 0 -35 18
-19 34 12 12 38 2 41 -17z m-80 -40 c3 -12 -4 -17 -22 -17 -28 0 -33 9 -14 28
15 15 32 10 36 -11z m260 -36 c-2 -10 5 -28 15 -39 14 -15 15 -22 6 -28 -7 -4
-19 3 -31 19 -11 15 -28 27 -39 27 -17 0 -18 3 -7 20 17 27 60 27 56 1z m-153
-91 c0 -9 -11 -16 -28 -18 -26 -3 -27 -2 -15 18 14 23 43 23 43 0z m385 -201
c0 -5 -10 -14 -22 -20 -18 -10 -24 -8 -35 6 -11 16 -10 21 5 36 15 15 19 15
35 1 9 -8 17 -19 17 -23z m-142 -41 c4 -32 -22 -50 -55 -37 -44 16 -21 72 27
67 19 -2 26 -10 28 -30z m169 16 c1 -5 -23 -22 -55 -37 -50 -25 -53 -25 -27
-5 16 13 37 30 45 40 16 17 32 18 37 2z m-454 -251 c-7 -2 -19 -2 -25 0 -7 3
-2 5 12 5 14 0 19 -2 13 -5z m387 -34 c0 -5 -7 -6 -15 -3 -8 4 -15 13 -15 21
0 13 3 13 15 3 8 -7 15 -16 15 -21z m-274 -14 c4 -8 10 -13 14 -10 10 6 21
-21 13 -29 -12 -12 -22 -5 -37 24 -8 17 -10 30 -5 30 5 0 12 -7 15 -15z m-63
-70 c-3 -9 -8 -14 -10 -11 -3 3 -2 9 2 15 9 16 15 13 8 -4z m165 -22 c-4 -22
-22 -20 -26 1 -2 10 3 16 13 16 10 0 15 -7 13 -17z m69 -215 c-3 -8 -6 -5 -6
6 -1 11 2 17 5 13 3 -3 4 -12 1 -19z"/>
<path d="M1756 1992 c-4 -6 -4 -23 0 -37 5 -20 9 -23 20 -14 17 14 17 20 1 44
-9 12 -16 14 -21 7z"/>
<path d="M4660 1976 c0 -8 -7 -16 -15 -20 -22 -8 -18 -23 10 -42 25 -16 27
-16 53 10 16 14 36 26 46 26 9 0 14 5 11 10 -3 6 -15 10 -26 10 -10 0 -19 5
-19 10 0 6 -13 10 -30 10 -19 0 -30 -5 -30 -14z"/>
<path d="M5640 1967 c0 -17 47 -40 55 -27 3 5 -4 11 -15 15 -11 4 -18 11 -15
16 4 5 -1 9 -9 9 -9 0 -16 -6 -16 -13z"/>
<path d="M5635 1920 c-3 -5 -2 -10 4 -10 5 0 13 5 16 10 3 6 2 10 -4 10 -5 0
-13 -4 -16 -10z"/>
<path d="M5515 1890 c3 -5 8 -10 11 -10 2 0 4 5 4 10 0 6 -5 10 -11 10 -5 0
-7 -4 -4 -10z"/>
<path d="M5795 1835 c-44 -27 -37 -34 9 -10 15 8 32 12 37 9 5 -3 6 2 3 10 -7
19 -2 21 -49 -9z"/>
<path d="M5753 1793 c-29 -6 -29 -27 -1 -55 l21 -21 -6 32 c-6 30 -5 31 14 20
15 -8 24 -8 32 0 8 8 6 11 -8 11 -17 0 -18 2 -5 10 12 8 11 9 -5 8 -11 0 -30
-3 -42 -5z"/>
<path d="M1485 1695 c-16 -8 -68 -29 -115 -47 -78 -31 -84 -34 -69 -49 9 -9
18 -21 20 -26 2 -6 23 -13 47 -17 32 -5 42 -3 42 8 0 15 31 38 95 71 30 15 40
26 40 45 0 30 -19 34 -60 15z"/>
<path d="M2033 1388 c-4 -7 -14 -13 -20 -13 -7 0 -13 -3 -13 -7 0 -5 0 -15 0
-23 0 -21 30 -19 31 3 0 11 5 7 14 -13 l14 -30 1 42 c0 43 -13 63 -27 41z"/>
<path d="M4213 1362 c13 -31 82 -127 97 -137 22 -13 8 17 -23 52 -18 21 -39
52 -46 70 -7 17 -19 34 -26 37 -12 4 -12 0 -2 -22z"/>
<path d="M4825 1326 c46 -20 85 -28 85 -17 0 11 -63 31 -95 31 -15 -1 -13 -4
10 -14z"/>
<path d="M4184 1276 c22 -46 107 -158 114 -151 3 3 -1 12 -8 20 -7 9 -23 37
-36 63 -18 39 -76 112 -88 112 -2 0 6 -20 18 -44z"/>
<path d="M2290 1263 c0 -10 5 -25 10 -33 13 -21 34 2 25 29 -8 25 -35 28 -35
4z"/>
<path d="M1983 1233 c9 -2 23 -2 30 0 6 3 -1 5 -18 5 -16 0 -22 -2 -12 -5z"/>
<path d="M2237 1228 c-14 -11 -16 -23 -11 -65 4 -29 11 -53 15 -53 5 0 9 4 9
8 0 5 19 15 43 22 40 12 41 13 19 23 -14 6 -21 16 -17 25 5 14 -20 52 -35 52
-3 0 -14 -6 -23 -12z"/>
<path d="M4130 1226 c0 -26 133 -206 152 -206 4 0 8 7 8 15 0 8 -4 15 -10 15
-5 0 -10 7 -10 15 0 8 -4 15 -10 15 -5 0 -10 6 -10 13 0 18 -87 134 -105 141
-9 3 -15 0 -15 -8z"/>
<path d="M4833 1185 c-29 -20 -53 -40 -53 -45 0 -6 21 -10 48 -10 29 0 59 -8
80 -20 18 -11 50 -20 71 -20 21 0 44 -6 51 -14 13 -17 40 -11 40 9 0 14 67 29
116 26 24 -2 33 2 37 18 6 26 4 27 -63 36 -30 3 -77 12 -105 20 -27 7 -68 16
-89 19 -21 4 -48 9 -60 11 -14 4 -39 -7 -73 -30z"/>
<path d="M4115 1133 c36 -57 64 -87 73 -79 6 7 -70 112 -91 125 -12 8 -6 -7
18 -46z"/>
<path d="M4006 1165 c-6 -18 51 -122 99 -178 19 -22 35 -44 35 -49 0 -4 4 -8
9 -8 6 0 0 19 -12 42 -16 30 -19 42 -9 45 21 8 14 24 -34 82 -57 70 -80 86
-88 66z"/>
<path d="M2379 1123 c-8 -10 -27 -26 -42 -36 -36 -23 -43 -42 -24 -62 20 -19
19 -19 47 5 12 11 20 26 17 33 -3 9 1 14 10 13 8 0 20 7 26 16 9 14 8 21 -4
34 -15 15 -18 14 -30 -3z"/>
<path d="M3365 1120 c-3 -5 1 -10 9 -10 8 0 18 5 21 10 3 6 -1 10 -9 10 -8 0
-18 -4 -21 -10z"/>
<path d="M3940 1091 c0 -5 4 -11 8 -13 5 -1 11 -19 15 -38 3 -19 3 -29 0 -22
-2 6 -11 12 -19 12 -11 0 -8 -9 10 -37 16 -26 30 -37 42 -35 11 2 29 4 42 4
33 0 27 21 -18 62 -22 20 -40 39 -40 44 0 4 -9 13 -20 20 -11 7 -20 8 -20 3z
m70 -96 c0 -5 -5 -3 -10 5 -5 8 -10 20 -10 25 0 6 5 3 10 -5 5 -8 10 -19 10
-25z"/>
<path d="M4672 1070 c2 -8 16 -23 31 -34 25 -19 29 -19 59 -4 l33 16 -30 12
c-51 20 -98 25 -93 10z"/>
<path d="M3223 1047 c-13 -5 -23 -16 -23 -24 0 -18 14 -16 41 5 26 22 14 34
-18 19z"/>
<path d="M4820 1024 c36 -26 50 -41 50 -53 0 -28 36 -3 37 26 1 17 -6 22 -35
28 -20 3 -46 8 -57 11 -16 5 -15 2 5 -12z"/>
<path d="M4630 1022 c-8 -2 -23 -13 -33 -24 -18 -18 -18 -20 15 -57 47 -54 65
-64 82 -49 12 11 11 21 -5 62 -21 57 -38 76 -59 68z"/>
<path d="M3268 952 c-10 -2 -18 -8 -18 -13 0 -13 27 -11 35 2 9 13 4 16 -17
11z"/>
<path d="M4520 935 c0 -14 40 -48 48 -41 2 3 -1 13 -7 24 -13 25 -41 37 -41
17z"/>
<path d="M4080 931 c0 -6 4 -13 10 -16 6 -3 7 1 4 9 -7 18 -14 21 -14 7z"/>
<path d="M5462 928 c5 -15 28 -18 29 -3 0 6 -7 12 -17 13 -10 3 -15 -1 -12
-10z"/>
<path d="M4450 903 c0 -6 8 -17 18 -24 16 -13 16 -13 2 6 -8 11 -16 22 -17 24
-2 2 -3 0 -3 -6z"/>
<path d="M4180 881 c0 -11 61 -92 121 -159 27 -31 45 -61 43 -70 -4 -18 60
-112 76 -112 6 0 10 9 10 20 0 11 -5 20 -11 20 -6 0 -9 7 -5 15 7 19 -3 45
-16 45 -6 0 -5 -7 2 -15 7 -9 10 -18 7 -22 -4 -3 -12 6 -18 21 -7 14 -16 26
-21 26 -4 0 -8 5 -8 11 0 6 7 8 16 5 11 -4 3 18 -24 66 -35 66 -42 73 -68 72
-24 -1 -34 6 -56 42 -25 40 -48 57 -48 35z"/>
<path d="M4402 872 c-12 -8 -7 -42 7 -42 11 0 52 -59 56 -81 5 -26 10 -34 73
-111 52 -63 87 -83 60 -35 -7 12 -13 31 -15 42 -5 28 -63 115 -78 115 -12 0
-75 93 -75 111 0 11 -11 11 -28 1z"/>
<path d="M4130 842 c0 -4 10 -18 23 -32 13 -14 28 -34 35 -45 10 -18 11 -18
12 -2 0 23 -42 87 -57 87 -7 0 -13 -3 -13 -8z"/>
<path d="M4680 831 c5 -11 15 -23 21 -27 6 -3 3 5 -6 20 -20 30 -30 35 -15 7z"/>
<path d="M5332 830 c1 -13 9 -25 16 -28 17 -5 15 23 -4 39 -14 11 -15 10 -12
-11z"/>
<path d="M4340 837 c0 -5 9 -20 20 -34 11 -14 20 -22 20 -17 -1 12 -39 61 -40
51z"/>
<path d="M3141 804 c0 -11 3 -14 6 -6 3 7 2 16 -1 19 -3 4 -6 -2 -5 -13z"/>
<path d="M4560 762 c0 -5 9 -18 20 -30 11 -12 20 -25 20 -29 0 -4 17 -24 37
-43 l36 -35 -24 35 c-13 19 -31 44 -41 54 -10 11 -20 28 -24 38 -5 18 -24 26
-24 10z"/>
<path d="M2089 736 l-36 -11 22 -48 c16 -39 23 -46 32 -35 10 12 30 109 22
107 -2 -1 -20 -6 -40 -13z"/>
<path d="M4426 712 c-8 -13 72 -127 82 -117 3 2 -1 11 -7 19 -7 8 -9 21 -5 27
4 7 3 9 -3 6 -14 -9 -46 40 -37 55 4 6 3 8 -4 4 -5 -3 -12 -1 -14 6 -3 9 -6 9
-12 0z"/>
<path d="M2980 700 c-13 -8 -13 -11 0 -24 13 -14 15 -13 16 9 1 14 1 25 0 25
0 0 -8 -5 -16 -10z"/>
<path d="M5442 686 c1 -15 7 -22 15 -19 15 6 15 6 7 27 -9 24 -24 19 -22 -8z"/>
<path d="M5668 689 c-22 -12 -23 -32 -3 -63 14 -21 19 -23 45 -13 37 14 41 35
14 64 -24 26 -31 27 -56 12z"/>
<path d="M1300 680 c8 -5 22 -10 30 -10 13 0 13 1 0 10 -8 5 -22 10 -30 10
-13 0 -13 -1 0 -10z"/>
<path d="M4414 653 c18 -34 55 -81 56 -71 0 4 -12 28 -27 53 -30 48 -53 63
-29 18z"/>
<path d="M5875 650 c-3 -5 0 -10 9 -10 8 0 23 -3 33 -7 16 -6 16 -5 4 10 -15
19 -37 22 -46 7z"/>
<path d="M4827 625 c6 -11 28 -38 48 -60 l37 -40 -33 48 c-36 53 -71 88 -52
52z"/>
<path d="M5505 621 c16 -7 17 -9 5 -13 -10 -3 -9 -4 3 -3 9 2 17 -1 17 -6 0
-5 5 -9 12 -9 6 0 3 9 -7 20 -10 11 -25 20 -34 19 -12 0 -11 -3 4 -8z"/>
<path d="M3031 604 c0 -11 3 -14 6 -6 3 7 2 16 -1 19 -3 4 -6 -2 -5 -13z"/>
<path d="M3465 577 c-4 -17 -18 -70 -31 -117 -14 -46 -23 -92 -22 -101 2 -9
-2 -22 -8 -30 -12 -16 -44 -137 -44 -169 0 -12 7 -20 16 -20 17 0 84 34 122
61 27 21 69 14 51 -7 -7 -8 -10 -17 -7 -20 16 -15 133 59 122 77 -3 5 1 21 10
34 9 13 16 29 16 36 0 6 9 24 21 40 18 26 19 30 5 45 -9 8 -16 12 -16 7 0 -5
-13 -10 -30 -11 -25 -2 -35 6 -70 52 -22 31 -40 59 -40 63 0 13 -64 88 -77 90
-6 1 -15 -12 -18 -30z m53 -104 c4 -25 -22 -37 -38 -17 -10 11 -10 17 0 29 17
20 34 14 38 -12z m100 -152 c-2 -9 -11 -17 -21 -19 -21 -4 -35 27 -17 38 19
12 42 0 38 -19z"/>
<path d="M2040 578 c-19 -10 -39 -19 -44 -21 -14 -5 43 -77 60 -77 8 0 13 3
12 8 -1 4 4 20 10 35 14 32 16 64 5 70 -5 2 -24 -5 -43 -15z"/>
<path d="M2947 593 c-7 -13 -19 -89 -13 -83 6 7 25 90 21 90 -2 0 -6 -3 -8 -7z"/>
<path d="M3361 546 c-12 -26 -21 -54 -21 -61 0 -8 -14 -55 -31 -106 -22 -66
-29 -102 -24 -125 14 -75 32 -33 65 146 12 63 25 120 29 125 15 19 19 42 11
56 -6 10 -15 0 -29 -35z"/>
<path d="M3571 554 c0 -11 3 -14 6 -6 3 7 2 16 -1 19 -3 4 -6 -2 -5 -13z"/>
<path d="M4103 559 c-15 -15 0 -39 23 -39 17 0 18 11 1 33 -10 14 -15 15 -24
6z"/>
<path d="M4605 560 c-3 -5 -2 -10 4 -10 5 0 13 5 16 10 3 6 2 10 -4 10 -5 0
-13 -4 -16 -10z"/>
<path d="M3600 536 c-11 -22 -11 -28 0 -39 10 -10 12 -8 6 7 -4 11 -2 22 5 27
6 3 10 12 7 19 -2 6 -10 0 -18 -14z"/>
<path d="M3745 531 c-9 -15 19 -41 34 -32 8 5 6 12 -8 25 -12 11 -21 14 -26 7z"/>
<path d="M3229 503 c-21 -36 -42 -130 -53 -229 -1 -11 -5 -25 -9 -31 -3 -5 -8
-39 -11 -74 -3 -35 -8 -72 -11 -82 -6 -13 -2 -17 15 -17 16 0 20 4 16 15 -3 8
-9 22 -12 30 -3 8 -1 15 5 15 6 0 11 9 11 21 0 11 5 17 10 14 14 -9 12 8 -2
24 -10 11 -10 13 0 7 7 -5 12 -1 12 9 0 9 -4 13 -10 10 -5 -3 -10 -1 -10 4 0
6 6 11 13 11 16 0 46 81 58 155 22 138 22 145 7 145 -7 0 -21 -12 -29 -27z
m-19 -202 c0 -6 -4 -13 -10 -16 -5 -3 -10 1 -10 9 0 9 5 16 10 16 6 0 10 -4
10 -9z"/>
<path d="M3981 510 c-19 -5 -41 -6 -49 -2 -10 3 -13 1 -8 -6 3 -6 2 -13 -4
-17 -18 -11 39 -81 79 -97 39 -16 39 -16 40 -73 0 -32 5 -63 11 -69 5 -5 10
-21 10 -34 0 -15 7 -26 20 -29 11 -3 17 -9 14 -14 -12 -21 28 -19 73 3 47 22
48 24 42 59 -7 47 -48 100 -72 95 -10 -3 -30 9 -47 27 -31 33 -37 52 -20 62
10 6 7 13 -23 70 -18 34 -21 35 -66 25z"/>
<path d="M4920 511 c0 -6 4 -13 10 -16 6 -3 7 1 4 9 -7 18 -14 21 -14 7z"/>
<path d="M3626 495 c-3 -9 -6 -22 -5 -28 0 -7 5 -1 10 12 5 13 8 26 5 28 -2 2
-6 -3 -10 -12z"/>
<path d="M3144 472 c-12 -12 -27 -42 -34 -65 -7 -23 -23 -65 -36 -94 -13 -28
-24 -63 -24 -77 0 -15 -9 -45 -20 -69 -21 -45 -50 -134 -50 -154 0 -8 14 -13
38 -13 26 0 33 3 23 9 -12 8 -12 13 3 36 10 15 16 35 13 45 -3 11 1 21 9 24 8
3 14 11 14 19 0 7 9 30 20 52 11 22 20 52 20 67 0 15 5 30 10 33 6 3 10 22 10
40 0 19 7 55 16 80 8 26 14 56 12 68 l-3 22 -21 -23z"/>
<path d="M682 410 c-67 -37 -137 -79 -155 -92 -28 -22 -45 -31 -69 -37 -4 -2
-47 -23 -95 -48 -122 -63 -128 -66 -213 -106 -41 -19 -86 -38 -100 -42 -38
-11 -50 -25 -50 -56 l0 -29 530 0 c292 0 530 2 530 6 0 3 -13 29 -29 58 -17
29 -42 82 -56 118 -14 36 -37 75 -50 86 -13 12 -29 40 -35 63 -10 36 -74 151
-82 148 -2 0 -58 -32 -126 -69z m153 -120 c3 -5 19 -10 36 -10 35 0 36 -11 9
-75 -16 -37 -24 -46 -38 -40 -9 4 -28 9 -42 11 -38 8 -43 18 -30 61 7 21 14
44 16 51 4 14 40 16 49 2z m-285 -129 c14 -28 13 -51 -4 -51 -15 0 -39 54 -29
64 11 11 22 6 33 -13z"/>
<path d="M4940 476 c0 -2 8 -10 18 -17 15 -13 16 -12 3 4 -13 16 -21 21 -21
13z"/>
<path d="M3778 462 c-21 -4 -23 -23 -6 -40 8 -8 8 -15 0 -25 -7 -8 -9 -17 -5
-21 11 -11 11 -50 1 -63 -6 -7 -7 -13 -3 -13 12 0 133 69 139 79 10 16 -35 61
-60 61 -13 0 -24 4 -24 9 0 12 -21 18 -42 13z"/>
<path d="M4704 436 c1 -8 5 -18 8 -22 4 -3 5 1 4 10 -1 8 -5 18 -8 22 -4 3 -5
-1 -4 -10z"/>
<path d="M4990 410 c6 -11 13 -20 16 -20 2 0 0 9 -6 20 -6 11 -13 20 -16 20
-2 0 0 -9 6 -20z"/>
<path d="M4268 388 c5 -21 4 -22 -12 -9 -19 16 -21 14 -30 -15 -8 -27 61 -124
86 -120 21 3 36 16 20 16 -7 0 -12 5 -12 10 0 6 7 10 15 10 8 0 15 5 15 10 0
28 -62 120 -81 120 -4 0 -5 -10 -1 -22z"/>
<path d="M2853 308 c-21 -64 -29 -107 -27 -138 2 -25 1 -39 -3 -31 -4 10 -16
-6 -34 -45 -36 -74 -37 -94 -5 -94 20 0 25 7 31 37 3 21 18 84 31 141 14 57
22 113 18 124 -4 13 -2 18 4 14 6 -3 13 11 17 35 12 70 -1 53 -32 -43z"/>
<path d="M3013 378 c3 -12 2 -28 -3 -37 -4 -9 -10 -36 -13 -61 -12 -109 -29
-175 -53 -203 -13 -16 -24 -32 -24 -37 0 -5 -3 -15 -6 -24 -5 -12 0 -16 19
-16 27 0 26 -1 47 102 6 31 18 62 26 69 11 9 13 24 8 60 -5 37 -3 50 7 54 9 3
15 24 16 60 1 44 -1 55 -14 55 -11 0 -14 -6 -10 -22z"/>
<path d="M5100 320 c0 -5 5 -10 10 -10 6 0 10 5 10 10 0 6 -4 10 -10 10 -5 0
-10 -4 -10 -10z"/>
<path d="M5070 316 c0 -2 8 -10 18 -17 15 -13 16 -12 3 4 -13 16 -21 21 -21
13z"/>
<path d="M3907 293 c-12 -3 -16 -10 -12 -20 13 -34 -61 -73 -80 -42 -9 13 -42
-16 -51 -45 -7 -21 -7 -21 -15 -1 -7 17 -8 17 -8 -7 -1 -17 -9 -32 -21 -38
-20 -11 -30 -70 -11 -70 5 0 12 -16 15 -35 7 -35 7 -35 61 -35 42 0 55 3 55
15 0 8 -4 15 -9 15 -5 0 -12 18 -16 39 -6 36 -3 42 32 78 74 75 87 95 75 113
-8 13 -7 21 1 29 6 6 9 10 7 10 -3 -1 -13 -3 -23 -6z"/>
<path d="M5990 280 c0 -5 5 -10 10 -10 6 0 10 5 10 10 0 6 -4 10 -10 10 -5 0
-10 -4 -10 -10z"/>
<path d="M5101 275 c0 -12 48 -69 54 -64 2 2 -10 20 -26 39 -15 19 -28 31 -28
25z"/>
<path d="M4502 250 c0 -14 2 -19 5 -12 2 6 2 18 0 25 -3 6 -5 1 -5 -13z"/>
<path d="M6090 260 c-8 -5 -11 -12 -8 -16 10 -9 38 3 38 16 0 12 -10 13 -30 0z"/>
<path d="M2488 253 c-16 -2 -28 -8 -28 -13 0 -4 -8 -6 -18 -3 -10 2 -24 -3
-31 -11 -8 -9 -20 -16 -27 -16 -8 0 -14 -4 -14 -10 0 -5 -11 -10 -25 -10 -25
0 -131 -46 -141 -61 -5 -9 31 -84 45 -94 16 -9 108 42 113 63 6 22 103 71 129
64 3 0 4 11 1 25 -4 22 -2 25 13 20 14 -6 16 -3 11 18 -5 21 -3 24 16 22 13
-1 26 -6 30 -12 4 -6 8 -2 8 8 0 17 -18 20 -82 10z"/>
<path d="M5070 190 c12 -16 24 -30 26 -30 3 0 -3 14 -13 30 -9 17 -21 30 -26
30 -5 0 1 -13 13 -30z"/>
<path d="M4998 175 c16 -30 41 -61 41 -50 0 6 -11 24 -25 40 -14 17 -21 21
-16 10z"/>
<path d="M3475 145 c-27 -14 -63 -33 -79 -43 -31 -19 -45 -42 -26 -42 14 0
145 84 154 99 10 15 8 14 -49 -14z"/>
<path d="M6080 159 c0 -5 5 -7 10 -4 6 3 10 8 10 11 0 2 -4 4 -10 4 -5 0 -10
-5 -10 -11z"/>
<path d="M3256 141 c-3 -4 1 -17 8 -27 13 -17 14 -17 9 9 -6 29 -9 32 -17 18z"/>
<path d="M4603 143 c-21 -7 -15 -33 7 -33 11 0 20 6 20 14 0 18 -11 25 -27 19z"/>
<path d="M5252 132 c-31 -3 -33 -5 -30 -42 1 -21 5 -37 9 -34 5 2 18 -9 30
-26 20 -27 28 -30 76 -30 l54 0 -18 31 c-10 17 -34 48 -53 68 -29 31 -41 37
-68 33z"/>
<path d="M6068 123 c-24 -6 -23 -33 1 -33 23 0 38 18 25 29 -5 4 -17 6 -26 4z"/>
<path d="M2866 66 c-20 -43 -20 -66 0 -66 8 0 13 4 10 8 -3 5 -1 26 5 46 14
49 6 56 -15 12z"/>
<path d="M2088 66 c-10 -7 -22 -25 -27 -39 l-11 -27 65 0 65 0 -13 28 c-23 52
-46 63 -79 38z"/>
<path d="M4615 42 c1 -21 13 -42 24 -42 14 0 20 37 8 49 -17 17 -34 13 -32 -7z"/>
<path d="M5170 50 c0 -6 5 -10 10 -10 6 0 9 -3 9 -7 -4 -23 3 -33 21 -33 19 0
20 1 5 24 -17 26 -45 42 -45 26z"/>
<path d="M3465 40 c-3 -5 -1 -10 4 -10 6 0 11 5 11 10 0 6 -2 10 -4 10 -3 0
-8 -4 -11 -10z"/>
<path d="M5237 29 c7 -7 15 -10 18 -7 3 3 -2 9 -12 12 -14 6 -15 5 -6 -5z"/>
<path d="M2821 14 c0 -11 3 -14 6 -6 3 7 2 16 -1 19 -3 4 -6 -2 -5 -13z"/>
<path d="M3126 23 c-11 -11 -6 -23 9 -23 8 0 15 4 15 9 0 13 -16 22 -24 14z"/>
<path d="M3414 15 c-16 -12 -16 -14 -3 -15 9 0 22 7 29 15 16 19 0 19 -26 0z"/>
<path d="M5096 15 c4 -8 12 -15 20 -15 20 0 17 7 -6 20 -16 9 -18 8 -14 -5z"/>
</g>
</svg>
